
<!-- Generator: visioncortex VTracer 0.6.4 -->
<svg version="1.1" xmlns="http://www.w3.org/2000/svg" viewBox="0 0 500 500" preserveAspectRatio="xMidYMid meet">
<path d="M0 0 C165 0 330 0 500 0 C500 165 500 330 500 500 C335 500 170 500 0 500 C0 335 0 170 0 0 Z " fill="#FEFEFE" transform="translate(0,0)"/>
<path d="M0 0 C1.195 -0.007 1.195 -0.007 2.414 -0.014 C6.699 -0.003 10.717 0.274 14.938 1.125 C14.938 1.785 14.938 2.445 14.938 3.125 C18.567 2.795 22.197 2.465 25.938 2.125 C25.938 10.705 25.938 19.285 25.938 28.125 C28.248 28.125 30.558 28.125 32.938 28.125 C32.938 19.545 32.938 10.965 32.938 2.125 C34.918 2.125 36.897 2.125 38.938 2.125 C38.938 10.705 38.938 19.285 38.938 28.125 C41.248 28.125 43.558 28.125 45.938 28.125 C45.938 19.545 45.938 10.965 45.938 2.125 C47.918 2.125 49.897 2.125 51.938 2.125 C52.054 6.708 52.125 11.291 52.188 15.875 C52.221 17.177 52.255 18.479 52.289 19.82 C52.302 21.071 52.315 22.321 52.328 23.609 C52.349 24.761 52.37 25.914 52.392 27.101 C51.938 30.125 51.938 30.125 50.289 32.503 C47.303 34.562 45.538 34.614 41.93 34.586 C40.203 34.58 40.203 34.58 38.441 34.574 C37.244 34.55 36.046 34.525 34.812 34.5 C33.005 34.498 33.005 34.498 31.16 34.496 C22.218 34.406 22.218 34.406 19.938 32.125 C17.829 32.444 17.829 32.444 15.938 33.125 C17.587 33.455 19.238 33.785 20.938 34.125 C16.127 36.619 12.148 38.381 6.656 38.355 C5.655 38.354 4.653 38.353 3.622 38.352 C2.045 38.332 2.045 38.332 0.438 38.312 C-0.635 38.305 -1.708 38.297 -2.813 38.289 C-24.128 38.06 -24.128 38.06 -27.062 35.125 C-27.441 33.215 -27.441 33.215 -27.625 31.062 C-27.622 27.358 -27.622 27.358 -29.062 26.125 C-30.749 26.053 -32.438 26.041 -34.125 26.062 C-35.044 26.072 -35.963 26.081 -36.91 26.09 C-37.62 26.101 -38.331 26.113 -39.062 26.125 C-39.244 26.74 -39.426 27.355 -39.613 27.988 C-39.865 28.797 -40.116 29.605 -40.375 30.438 C-40.619 31.238 -40.862 32.039 -41.113 32.863 C-42.144 35.319 -43.019 36.444 -45.062 38.125 C-48.028 38.436 -50.779 38.569 -53.746 38.559 C-55.024 38.566 -55.024 38.566 -56.328 38.574 C-58.129 38.581 -59.93 38.58 -61.732 38.571 C-64.487 38.563 -67.239 38.591 -69.994 38.623 C-71.745 38.625 -73.495 38.624 -75.246 38.621 C-76.069 38.632 -76.892 38.644 -77.74 38.655 C-81.533 38.609 -83.454 38.567 -86.59 36.289 C-88.556 33.4 -88.509 31.548 -88.062 28.125 C-87.403 27.465 -86.743 26.805 -86.062 26.125 C-86.039 24.132 -86.039 24.132 -86.438 22 C-86.644 20.721 -86.85 19.442 -87.062 18.125 C-87.722 18.125 -88.382 18.125 -89.062 18.125 C-89.062 16.475 -89.062 14.825 -89.062 13.125 C-93.404 13.31 -93.404 13.31 -97.062 15.125 C-97.267 18.892 -97.409 22.652 -97.492 26.424 C-97.63 29.956 -97.741 32.503 -99.379 35.676 C-101.062 37.125 -101.062 37.125 -104.625 37.5 C-108.062 37.125 -108.062 37.125 -110.062 35.125 C-110.365 33.201 -110.365 33.201 -110.441 30.879 C-110.476 30.042 -110.51 29.204 -110.545 28.342 C-110.585 27.028 -110.585 27.028 -110.625 25.688 C-110.685 23.96 -110.749 22.232 -110.816 20.504 C-110.84 19.736 -110.864 18.969 -110.889 18.178 C-110.998 15.926 -110.998 15.926 -112.062 13.125 C-116.353 12.795 -120.642 12.465 -125.062 12.125 C-124.072 13.796 -124.072 13.796 -123.062 15.5 C-120.631 20.372 -120.295 24.765 -121.062 30.125 C-122.667 33.895 -124.515 36.102 -128.062 38.125 C-131.013 38.562 -133.936 38.521 -136.914 38.488 C-138.197 38.489 -138.197 38.489 -139.506 38.49 C-141.309 38.487 -143.113 38.478 -144.917 38.461 C-147.685 38.438 -150.451 38.441 -153.219 38.447 C-154.971 38.442 -156.724 38.435 -158.477 38.426 C-159.307 38.427 -160.137 38.428 -160.992 38.429 C-166.831 38.356 -166.831 38.356 -169.062 36.125 C-169.441 34.215 -169.441 34.215 -169.625 32.062 C-169.622 28.358 -169.622 28.358 -171.062 27.125 C-172.915 27.053 -174.771 27.041 -176.625 27.062 C-177.637 27.072 -178.649 27.081 -179.691 27.09 C-180.474 27.101 -181.256 27.113 -182.062 27.125 C-182.166 28.218 -182.269 29.311 -182.375 30.438 C-183.062 34.125 -183.062 34.125 -184.25 36.062 C-186.869 37.598 -189.092 37.323 -192.062 37.125 C-192.062 37.785 -192.062 38.445 -192.062 39.125 C-203.942 39.125 -215.822 39.125 -228.062 39.125 C-228.062 38.135 -228.062 37.145 -228.062 36.125 C-216.843 35.795 -205.623 35.465 -194.062 35.125 C-192.946 29.206 -192.946 29.206 -194.062 24.125 C-197.687 24.038 -201.312 23.985 -204.938 23.938 C-205.97 23.912 -207.003 23.887 -208.066 23.861 C-209.053 23.852 -210.039 23.842 -211.055 23.832 C-211.966 23.816 -212.877 23.801 -213.816 23.784 C-214.557 23.897 -215.299 24.009 -216.062 24.125 C-218.359 27.57 -218.603 30.063 -219.062 34.125 C-221.373 34.125 -223.683 34.125 -226.062 34.125 C-226.137 30.05 -226.191 25.975 -226.227 21.9 C-226.242 20.514 -226.263 19.127 -226.289 17.741 C-226.325 15.748 -226.341 13.755 -226.355 11.762 C-226.371 10.562 -226.387 9.363 -226.403 8.128 C-226.062 5.125 -226.062 5.125 -224.959 3.229 C-222.1 1.565 -219.712 1.789 -216.426 1.832 C-215.127 1.842 -213.828 1.851 -212.49 1.861 C-211.118 1.886 -209.747 1.912 -208.375 1.938 C-206.992 1.953 -205.608 1.966 -204.225 1.979 C-200.837 2.014 -197.45 2.063 -194.062 2.125 C-194.062 4.105 -194.062 6.085 -194.062 8.125 C-202.642 8.125 -211.222 8.125 -220.062 8.125 C-220.062 10.435 -220.062 12.745 -220.062 15.125 C-211.483 15.125 -202.903 15.125 -194.062 15.125 C-193.403 17.435 -192.743 19.745 -192.062 22.125 C-192.024 20.462 -192.024 20.462 -191.984 18.766 C-191.928 17.302 -191.871 15.839 -191.812 14.375 C-191.798 13.645 -191.784 12.916 -191.77 12.164 C-191.617 8.812 -191.433 6.605 -189.354 3.911 C-186.585 1.753 -185.255 1.633 -181.781 1.664 C-180.774 1.668 -179.768 1.672 -178.73 1.676 C-177.162 1.713 -177.162 1.713 -175.562 1.75 C-174.517 1.751 -173.472 1.753 -172.395 1.754 C-164.253 1.848 -164.253 1.848 -160.062 4.125 C-156.28 4.494 -155.332 4.305 -152.062 2.125 C-149.272 1.884 -149.272 1.884 -145.847 1.898 C-143.925 1.898 -143.925 1.898 -141.965 1.898 C-140.566 1.909 -139.168 1.919 -137.77 1.93 C-136.339 1.933 -134.908 1.936 -133.478 1.938 C-129.715 1.946 -125.952 1.966 -122.189 1.988 C-118.348 2.008 -114.507 2.017 -110.666 2.027 C-103.131 2.049 -95.597 2.083 -88.062 2.125 C-87.732 3.445 -87.403 4.765 -87.062 6.125 C-86.036 5.147 -86.036 5.147 -84.99 4.149 C-81.415 1.677 -79.536 1.659 -75.23 1.734 C-73.292 1.754 -73.292 1.754 -71.314 1.773 C-69.96 1.807 -68.605 1.841 -67.25 1.875 C-65.876 1.895 -64.501 1.913 -63.127 1.93 C-59.771 1.977 -56.417 2.043 -53.062 2.125 C-53.062 2.785 -53.062 3.445 -53.062 4.125 C-52.403 4.125 -51.743 4.125 -51.062 4.125 C-51.062 3.465 -51.062 2.805 -51.062 2.125 C-48.423 2.125 -45.783 2.125 -43.062 2.125 C-42.072 5.095 -41.082 8.065 -40.062 11.125 C-36.433 11.125 -32.803 11.125 -29.062 11.125 C-28.588 9.661 -28.114 8.196 -27.625 6.688 C-26.188 2.25 -26.188 2.25 -25.062 1.125 C-16.754 0.155 -8.357 0.027 0 0 Z " fill="#EBEBEB" transform="translate(337.0625,207.875)"/>
<path d="M0 0 C1.195 -0.007 1.195 -0.007 2.414 -0.014 C6.699 -0.003 10.717 0.274 14.938 1.125 C14.938 1.785 14.938 2.445 14.938 3.125 C18.567 2.795 22.197 2.465 25.938 2.125 C25.938 10.705 25.938 19.285 25.938 28.125 C28.248 28.125 30.558 28.125 32.938 28.125 C32.938 19.545 32.938 10.965 32.938 2.125 C34.918 2.125 36.897 2.125 38.938 2.125 C38.938 10.705 38.938 19.285 38.938 28.125 C41.248 28.125 43.558 28.125 45.938 28.125 C45.938 19.545 45.938 10.965 45.938 2.125 C47.918 2.125 49.897 2.125 51.938 2.125 C52.054 6.708 52.125 11.291 52.188 15.875 C52.221 17.177 52.255 18.479 52.289 19.82 C52.302 21.071 52.315 22.321 52.328 23.609 C52.36 25.338 52.36 25.338 52.392 27.101 C51.938 30.125 51.938 30.125 50.289 32.503 C47.303 34.562 45.538 34.614 41.93 34.586 C40.203 34.58 40.203 34.58 38.441 34.574 C37.244 34.55 36.046 34.525 34.812 34.5 C33.005 34.498 33.005 34.498 31.16 34.496 C22.218 34.406 22.218 34.406 19.938 32.125 C17.829 32.444 17.829 32.444 15.938 33.125 C17.587 33.455 19.238 33.785 20.938 34.125 C16.127 36.619 12.148 38.381 6.656 38.355 C5.655 38.354 4.653 38.353 3.622 38.352 C2.045 38.332 2.045 38.332 0.438 38.312 C-0.635 38.305 -1.708 38.297 -2.813 38.289 C-24.128 38.06 -24.128 38.06 -27.062 35.125 C-27.441 33.215 -27.441 33.215 -27.625 31.062 C-27.622 27.358 -27.622 27.358 -29.062 26.125 C-30.705 26 -32.353 25.949 -34 25.938 C-34.896 25.923 -35.792 25.909 -36.715 25.895 C-39.254 25.893 -39.254 25.893 -41.062 28.125 C-41.777 30.109 -42.449 32.108 -43.062 34.125 C-45.373 34.125 -47.683 34.125 -50.062 34.125 C-50.062 23.565 -50.062 13.005 -50.062 2.125 C-47.752 2.125 -45.442 2.125 -43.062 2.125 C-42.072 5.095 -41.082 8.065 -40.062 11.125 C-36.433 11.125 -32.803 11.125 -29.062 11.125 C-28.588 9.661 -28.114 8.196 -27.625 6.688 C-26.188 2.25 -26.188 2.25 -25.062 1.125 C-16.754 0.155 -8.357 0.027 0 0 Z " fill="#ECECEC" transform="translate(337.0625,207.875)"/>
<path d="M0 0 C1.296 0.01 2.591 0.019 3.926 0.029 C5.289 0.054 6.652 0.08 8.016 0.105 C9.395 0.121 10.773 0.134 12.152 0.146 C15.524 0.182 18.895 0.231 22.266 0.293 C22.266 0.953 22.266 1.613 22.266 2.293 C22.926 2.293 23.586 2.293 24.266 2.293 C24.596 1.633 24.926 0.973 25.266 0.293 C25.266 10.853 25.266 21.413 25.266 32.293 C27.576 32.293 29.886 32.293 32.266 32.293 C32.596 30.313 32.926 28.333 33.266 26.293 C33.596 26.293 33.926 26.293 34.266 26.293 C33.653 32.785 33.653 32.785 31.964 34.998 C28.966 37.284 25.207 36.739 21.582 36.727 C20.73 36.732 19.878 36.737 19 36.742 C17.199 36.749 15.398 36.748 13.596 36.739 C10.842 36.731 8.089 36.759 5.334 36.791 C3.583 36.793 1.833 36.792 0.082 36.789 C-0.741 36.8 -1.564 36.812 -2.412 36.823 C-6.205 36.777 -8.126 36.735 -11.262 34.457 C-13.228 31.568 -13.181 29.716 -12.734 26.293 C-12.074 25.633 -11.414 24.973 -10.734 24.293 C-10.711 22.3 -10.711 22.3 -11.109 20.168 C-11.316 18.889 -11.522 17.61 -11.734 16.293 C-12.394 16.293 -13.054 16.293 -13.734 16.293 C-13.734 14.643 -13.734 12.993 -13.734 11.293 C-18.076 11.478 -18.076 11.478 -21.734 13.293 C-21.938 17.06 -22.081 20.82 -22.164 24.592 C-22.301 28.122 -22.418 30.675 -24.043 33.852 C-26.736 36.147 -29.348 35.549 -32.734 35.293 C-33.394 33.973 -34.054 32.653 -34.734 31.293 C-33.621 31.458 -32.507 31.623 -31.359 31.793 C-28.014 32.339 -28.014 32.339 -25.734 32.293 C-25.734 24.043 -25.734 15.793 -25.734 7.293 C-21.444 7.293 -17.154 7.293 -12.734 7.293 C-12.074 5.973 -11.414 4.653 -10.734 3.293 C-7.398 -0.097 -4.636 -0.061 0 0 Z " fill="#EFEFEF" transform="translate(261.734375,209.70703125)"/>
<path d="M0 0 C1.081 0.041 2.163 0.082 3.277 0.124 C5.052 0.189 5.052 0.189 6.863 0.256 C8.111 0.308 9.358 0.359 10.644 0.413 C11.869 0.456 13.093 0.5 14.355 0.545 C24.407 0.937 24.407 0.937 28.699 1.639 C31.591 2.261 31.591 2.261 34.519 1.038 C36.96 0.953 39.372 0.922 41.812 0.94 C42.871 0.942 42.871 0.942 43.951 0.944 C46.203 0.95 48.455 0.962 50.707 0.975 C52.235 0.98 53.763 0.985 55.291 0.989 C59.033 1 62.776 1.017 66.519 1.038 C66.519 0.708 66.519 0.378 66.519 0.038 C70.612 0.013 74.706 -0.005 78.799 -0.017 C80.192 -0.022 81.585 -0.029 82.978 -0.038 C84.979 -0.05 86.979 -0.055 88.98 -0.06 C90.184 -0.065 91.389 -0.071 92.63 -0.076 C95.519 0.038 95.519 0.038 97.519 1.038 C99.847 1.181 102.179 1.264 104.511 1.319 C105.563 1.346 105.563 1.346 106.636 1.375 C108.889 1.433 111.141 1.486 113.394 1.538 C123.137 1.766 132.814 2.072 142.519 3.038 C142.519 3.368 142.519 3.698 142.519 4.038 C140.209 4.038 137.899 4.038 135.519 4.038 C135.519 4.698 135.519 5.358 135.519 6.038 C134.859 6.038 134.199 6.038 133.519 6.038 C133.519 5.378 133.519 4.718 133.519 4.038 C129.498 4.082 125.479 4.152 121.458 4.245 C120.093 4.273 118.727 4.294 117.362 4.309 C115.391 4.33 113.42 4.379 111.449 4.428 C110.265 4.449 109.082 4.47 107.862 4.492 C103.914 5.136 101.669 6.63 98.519 9.038 C98.519 7.388 98.519 5.738 98.519 4.038 C97.611 4.068 96.702 4.098 95.766 4.129 C91.455 4.27 87.143 4.405 82.832 4.538 C82.049 4.562 81.266 4.586 80.459 4.611 C71.919 4.872 63.388 5.083 54.843 5.034 C54.173 5.03 53.503 5.027 52.812 5.023 C49.648 5.003 46.485 4.966 43.321 4.913 C42.2 4.901 41.08 4.889 39.925 4.877 C38.461 4.852 38.461 4.852 36.966 4.826 C34.261 4.862 34.261 4.862 31.519 7.038 C28.798 7.317 27.113 7.362 24.691 6.041 C20.438 4.076 15.564 4.711 10.957 4.725 C9.376 4.701 9.376 4.701 7.763 4.676 C6.753 4.676 5.743 4.675 4.703 4.674 C3.78 4.671 2.858 4.668 1.907 4.665 C-0.512 4.862 -0.512 4.862 -2.273 6.296 C-3.746 8.42 -3.902 9.697 -3.993 12.268 C-4.028 13.071 -4.064 13.873 -4.1 14.7 C-4.123 15.533 -4.145 16.366 -4.168 17.225 C-4.203 18.07 -4.237 18.915 -4.272 19.786 C-4.354 21.869 -4.419 23.953 -4.481 26.038 C-5.981 24.913 -5.981 24.913 -7.481 23.038 C-7.481 21.058 -7.481 19.078 -7.481 17.038 C-16.061 17.038 -24.641 17.038 -33.481 17.038 C-33.481 14.728 -33.481 12.418 -33.481 10.038 C-24.901 10.038 -16.321 10.038 -7.481 10.038 C-7.481 8.058 -7.481 6.078 -7.481 4.038 C-11.575 4.131 -15.668 4.237 -19.761 4.355 C-21.154 4.393 -22.547 4.428 -23.94 4.459 C-25.941 4.505 -27.941 4.564 -29.942 4.624 C-31.146 4.655 -32.351 4.686 -33.592 4.719 C-36.607 4.747 -36.607 4.747 -38.481 7.038 C-38.854 10.047 -38.854 10.047 -38.895 13.577 C-38.934 14.879 -38.972 16.181 -39.012 17.522 C-39.044 18.902 -39.075 20.282 -39.106 21.663 C-39.144 23.051 -39.183 24.439 -39.223 25.827 C-39.318 29.23 -39.403 32.634 -39.481 36.038 C-37.171 36.038 -34.861 36.038 -32.481 36.038 C-32.543 34.965 -32.605 33.893 -32.668 32.788 C-32.469 28.805 -32.235 27.765 -29.481 25.038 C-27.121 24.583 -27.121 24.583 -24.375 24.647 C-22.901 24.666 -22.901 24.666 -21.397 24.686 C-20.373 24.72 -19.349 24.753 -18.293 24.788 C-16.74 24.815 -16.74 24.815 -15.155 24.842 C-12.596 24.889 -10.039 24.955 -7.481 25.038 C-5.472 29.502 -5.46 32.21 -6.481 37.038 C-7.481 38.038 -7.481 38.038 -10.716 38.151 C-12.149 38.151 -13.583 38.145 -15.016 38.135 C-16.146 38.133 -16.146 38.133 -17.299 38.131 C-19.714 38.125 -22.129 38.113 -24.543 38.1 C-26.177 38.095 -27.81 38.091 -29.444 38.086 C-33.456 38.075 -37.469 38.058 -41.481 38.038 C-41.481 39.028 -41.481 40.018 -41.481 41.038 C-29.601 41.038 -17.721 41.038 -5.481 41.038 C-9.481 46.038 -9.481 46.038 -12.625 46.669 C-14.441 46.668 -14.441 46.668 -16.293 46.667 C-16.944 46.669 -17.595 46.671 -18.265 46.674 C-19.637 46.673 -21.009 46.659 -22.38 46.635 C-24.475 46.6 -26.566 46.614 -28.661 46.633 C-29.997 46.626 -31.333 46.617 -32.668 46.604 C-34.484 46.588 -34.484 46.588 -36.336 46.571 C-39.481 46.038 -39.481 46.038 -41.871 44.467 C-44.023 41.219 -44.075 38.378 -44.047 34.604 C-44.054 33.889 -44.06 33.174 -44.066 32.437 C-44.073 30.929 -44.07 29.42 -44.057 27.911 C-44.044 25.61 -44.078 23.313 -44.116 21.012 C-44.117 19.543 -44.115 18.073 -44.11 16.604 C-44.123 15.921 -44.136 15.237 -44.15 14.533 C-44.076 10.729 -43.581 9.158 -41.129 6.19 C-36.496 2.424 -34.169 1.772 -28.223 1.659 C-27.168 1.633 -27.168 1.633 -26.091 1.607 C-23.846 1.554 -21.601 1.514 -19.356 1.475 C-17.104 1.431 -14.852 1.385 -12.6 1.332 C-10.561 1.286 -8.523 1.248 -6.484 1.211 C-3.243 1.024 -3.072 0.047 0 0 Z M-5.481 39.038 C-3.831 39.038 -2.181 39.038 -0.481 39.038 C-2.461 40.028 -2.461 40.028 -4.481 41.038 C-4.811 40.378 -5.141 39.718 -5.481 39.038 Z " fill="#E9E9E9" transform="translate(150.48095703125,205.96240234375)"/>
<path d="M0 0 C1.145 -0.02 2.291 -0.04 3.471 -0.061 C4.572 -0.06 5.674 -0.059 6.809 -0.059 C8.32 -0.061 8.32 -0.061 9.861 -0.064 C13.341 0.582 14.499 1.586 16.562 4.438 C17.08 7.031 17.08 7.031 17.094 9.938 C17.101 11.515 17.101 11.515 17.109 13.125 C17.094 14.218 17.078 15.311 17.062 16.438 C17.078 17.531 17.093 18.624 17.109 19.75 C17.104 20.802 17.099 21.854 17.094 22.938 C17.089 23.897 17.085 24.856 17.08 25.844 C16.401 29.246 15.356 30.409 12.562 32.438 C9.861 32.955 9.861 32.955 6.809 32.969 C5.707 32.974 4.606 32.979 3.471 32.984 C2.325 32.969 1.18 32.953 0 32.938 C-1.149 32.953 -2.298 32.968 -3.482 32.984 C-5.133 32.977 -5.133 32.977 -6.816 32.969 C-7.823 32.964 -8.829 32.96 -9.865 32.955 C-12.438 32.438 -12.438 32.438 -14.264 30.764 C-15.709 27.899 -15.825 25.889 -15.836 22.684 C-15.84 21.582 -15.844 20.481 -15.848 19.346 C-15.83 17.628 -15.83 17.628 -15.812 15.875 C-15.824 14.726 -15.836 13.577 -15.848 12.393 C-15.844 11.292 -15.84 10.192 -15.836 9.059 C-15.833 8.052 -15.829 7.046 -15.826 6.01 C-15.438 3.438 -15.438 3.438 -14.264 1.613 C-10.214 -0.994 -4.655 -0.029 0 0 Z " fill="#040404" transform="translate(337.4375,209.5625)"/>
<path d="M0 0 C1.007 0.004 2.014 0.008 3.051 0.012 C4.619 0.048 4.619 0.048 6.219 0.086 C7.264 0.087 8.31 0.089 9.387 0.09 C18.157 0.191 18.157 0.191 21.719 2.461 C23.128 5.279 22.831 7.633 22.816 10.781 C22.813 12.038 22.81 13.295 22.807 14.59 C22.794 16.568 22.794 16.568 22.781 18.586 C22.776 19.926 22.772 21.266 22.768 22.605 C22.756 25.891 22.739 29.176 22.719 32.461 C20.739 32.461 18.759 32.461 16.719 32.461 C16.719 28.171 16.719 23.881 16.719 19.461 C10.119 19.461 3.519 19.461 -3.281 19.461 C-3.281 23.751 -3.281 28.041 -3.281 32.461 C-5.261 32.461 -7.241 32.461 -9.281 32.461 C-9.397 27.878 -9.468 23.295 -9.531 18.711 C-9.565 17.409 -9.598 16.107 -9.633 14.766 C-9.646 13.515 -9.659 12.265 -9.672 10.977 C-9.693 9.824 -9.714 8.672 -9.735 7.485 C-9.281 4.461 -9.281 4.461 -7.587 2.083 C-4.813 0.132 -3.365 -0.03 0 0 Z " fill="#020202" transform="translate(155.28125,209.5390625)"/>
<path d="M0 0 C1.299 0.01 2.597 0.019 3.936 0.029 C5.307 0.054 6.679 0.08 8.051 0.105 C9.434 0.121 10.818 0.134 12.201 0.146 C15.589 0.182 18.976 0.231 22.363 0.293 C22.363 2.273 22.363 4.253 22.363 6.293 C13.783 6.293 5.203 6.293 -3.637 6.293 C-3.637 8.603 -3.637 10.913 -3.637 13.293 C4.943 13.293 13.523 13.293 22.363 13.293 C23.023 15.603 23.683 17.913 24.363 20.293 C24.858 21.283 24.858 21.283 25.363 22.293 C25.459 23.957 25.493 25.626 25.488 27.293 C25.492 28.623 25.492 28.623 25.496 29.98 C25.363 32.293 25.363 32.293 24.363 34.293 C26.343 34.293 28.323 34.293 30.363 34.293 C30.363 34.623 30.363 34.953 30.363 35.293 C28.383 35.293 26.403 35.293 24.363 35.293 C24.363 35.953 24.363 36.613 24.363 37.293 C12.483 37.293 0.603 37.293 -11.637 37.293 C-11.637 36.303 -11.637 35.313 -11.637 34.293 C-0.417 33.963 10.803 33.633 22.363 33.293 C23.48 27.374 23.48 27.374 22.363 22.293 C18.738 22.206 15.114 22.153 11.488 22.105 C10.456 22.08 9.423 22.055 8.359 22.029 C7.373 22.02 6.387 22.01 5.371 22 C4.46 21.984 3.549 21.969 2.61 21.952 C1.868 22.065 1.127 22.177 0.363 22.293 C-1.933 25.737 -2.177 28.231 -2.637 32.293 C-4.947 32.293 -7.257 32.293 -9.637 32.293 C-9.711 28.218 -9.765 24.143 -9.802 20.068 C-9.817 18.681 -9.837 17.295 -9.863 15.909 C-9.899 13.916 -9.915 11.923 -9.93 9.93 C-9.945 8.73 -9.961 7.531 -9.977 6.296 C-9.637 3.293 -9.637 3.293 -8.533 1.396 C-5.674 -0.267 -3.286 -0.043 0 0 Z M25.363 32.293 C27.013 32.293 28.663 32.293 30.363 32.293 C30.363 32.623 30.363 32.953 30.363 33.293 C28.713 33.293 27.063 33.293 25.363 33.293 C25.363 32.963 25.363 32.633 25.363 32.293 Z " fill="#FE3232" transform="translate(120.63671875,209.70703125)"/>
<path d="M0 0 C1.98 0 3.96 0 6 0 C6 8.58 6 17.16 6 26 C8.31 26 10.62 26 13 26 C13 17.42 13 8.84 13 0 C14.98 0 16.96 0 19 0 C19 8.58 19 17.16 19 26 C21.31 26 23.62 26 26 26 C26 17.42 26 8.84 26 0 C27.98 0 29.96 0 32 0 C32.116 4.583 32.187 9.166 32.25 13.75 C32.3 15.703 32.3 15.703 32.352 17.695 C32.364 18.946 32.377 20.196 32.391 21.484 C32.412 22.636 32.433 23.789 32.454 24.976 C32 28 32 28 30.319 30.374 C27.494 32.355 25.929 32.515 22.5 32.531 C21.448 32.536 20.396 32.542 19.312 32.547 C18.219 32.531 17.126 32.516 16 32.5 C14.907 32.515 13.814 32.531 12.688 32.547 C11.636 32.542 10.584 32.537 9.5 32.531 C8.541 32.527 7.582 32.522 6.594 32.518 C3.166 31.834 2.013 30.843 0 28 C-0.454 24.976 -0.454 24.976 -0.391 21.484 C-0.378 20.234 -0.365 18.984 -0.352 17.695 C-0.318 16.393 -0.285 15.091 -0.25 13.75 C-0.232 12.433 -0.214 11.115 -0.195 9.758 C-0.148 6.504 -0.082 3.253 0 0 Z " fill="#010101" transform="translate(357,210)"/>
<path d="M0 0 C1.25 0.013 2.501 0.026 3.789 0.039 C5.742 0.089 5.742 0.089 7.734 0.141 C9.052 0.159 10.369 0.177 11.727 0.195 C14.98 0.242 18.232 0.308 21.484 0.391 C21.484 2.371 21.484 4.351 21.484 6.391 C12.904 6.391 4.324 6.391 -4.516 6.391 C-4.516 8.701 -4.516 11.011 -4.516 13.391 C-3.494 13.367 -3.494 13.367 -2.452 13.343 C0.631 13.281 3.714 13.242 6.797 13.203 C7.869 13.178 8.941 13.153 10.045 13.127 C11.073 13.117 12.101 13.108 13.16 13.098 C14.582 13.074 14.582 13.074 16.032 13.05 C18.484 13.391 18.484 13.391 20.29 14.735 C22.086 17.224 21.918 19.299 21.922 22.328 C21.941 23.368 21.961 24.409 21.98 25.48 C21.354 29.154 20.408 30.124 17.484 32.391 C14.46 32.845 14.46 32.845 10.969 32.781 C9.718 32.768 8.468 32.755 7.18 32.742 C5.227 32.692 5.227 32.692 3.234 32.641 C1.917 32.623 0.6 32.605 -0.758 32.586 C-4.011 32.539 -7.263 32.473 -10.516 32.391 C-10.516 30.411 -10.516 28.431 -10.516 26.391 C-1.936 26.391 6.644 26.391 15.484 26.391 C15.484 24.081 15.484 21.771 15.484 19.391 C14.803 19.412 14.122 19.433 13.421 19.454 C10.338 19.537 7.255 19.589 4.172 19.641 C3.1 19.674 2.028 19.708 0.924 19.742 C-0.618 19.762 -0.618 19.762 -2.191 19.781 C-3.139 19.802 -4.087 19.823 -5.064 19.845 C-7.516 19.391 -7.516 19.391 -9.321 17.532 C-10.82 14.845 -10.949 12.957 -10.953 9.891 C-10.972 8.952 -10.992 8.014 -11.012 7.047 C-9.845 0.799 -5.747 -0.104 0 0 Z " fill="#030303" transform="translate(191.515625,209.609375)"/>
<path d="M0 0 C1.254 0.01 2.507 0.019 3.799 0.029 C5.109 0.054 6.419 0.08 7.77 0.105 C9.105 0.121 10.44 0.134 11.775 0.146 C15.045 0.182 18.313 0.231 21.582 0.293 C21.582 2.273 21.582 4.253 21.582 6.293 C13.332 6.293 5.082 6.293 -3.418 6.293 C-3.418 8.603 -3.418 10.913 -3.418 13.293 C-2.772 13.272 -2.127 13.251 -1.462 13.229 C1.469 13.146 4.4 13.094 7.332 13.043 C8.348 13.009 9.364 12.976 10.41 12.941 C17.878 12.843 17.878 12.843 21.254 15 C22.78 17.635 23.119 19.196 23.082 22.23 C23.092 23.064 23.103 23.899 23.113 24.758 C22.389 28.216 21.076 29.801 18.582 32.293 C15.558 32.861 15.558 32.861 12.066 32.781 C10.816 32.765 9.566 32.749 8.277 32.732 C6.975 32.691 5.673 32.649 4.332 32.605 C2.356 32.572 2.356 32.572 0.34 32.537 C-2.914 32.478 -6.165 32.396 -9.418 32.293 C-9.418 30.313 -9.418 28.333 -9.418 26.293 C-1.168 26.293 7.082 26.293 15.582 26.293 C15.582 23.983 15.582 21.673 15.582 19.293 C14.931 19.309 14.281 19.324 13.61 19.341 C10.663 19.403 7.717 19.442 4.77 19.48 C3.745 19.506 2.721 19.531 1.666 19.557 C0.192 19.571 0.192 19.571 -1.312 19.586 C-2.218 19.602 -3.124 19.617 -4.058 19.634 C-6.418 19.293 -6.418 19.293 -8.212 17.964 C-10.106 15.339 -9.814 12.975 -9.793 9.793 C-9.805 8.076 -9.805 8.076 -9.816 6.324 C-9.418 3.293 -9.418 3.293 -8.294 1.622 C-5.531 -0.335 -3.355 -0.046 0 0 Z " fill="#030303" transform="translate(261.41796875,209.70703125)"/>
<path d="M0 0 C4.304 0.454 8.079 0.349 12.348 -0.23 C15.279 -0.559 18.176 -0.683 21.125 -0.75 C22.123 -0.776 23.12 -0.802 24.148 -0.828 C26.75 -0.5 26.75 -0.5 28.602 1.016 C28.981 1.505 29.36 1.995 29.75 2.5 C29.42 3.49 29.09 4.48 28.75 5.5 C28.702 7.215 28.712 8.933 28.758 10.648 C28.775 11.654 28.791 12.659 28.809 13.695 C28.853 15.807 28.905 17.919 28.965 20.031 C29.103 29.846 29.103 29.846 25.75 33.5 C22.699 35.366 20.389 35.756 16.836 35.766 C15.448 35.769 15.448 35.769 14.031 35.773 C13.072 35.766 12.113 35.758 11.125 35.75 C10.158 35.758 9.191 35.765 8.195 35.773 C7.272 35.771 6.349 35.768 5.398 35.766 C4.555 35.763 3.711 35.761 2.841 35.759 C0.75 35.5 0.75 35.5 -1.25 33.5 C-0.183 33.478 -0.183 33.478 0.906 33.456 C4.125 33.381 7.344 33.285 10.562 33.188 C11.682 33.165 12.802 33.142 13.955 33.119 C15.028 33.084 16.101 33.048 17.207 33.012 C18.197 32.986 19.187 32.959 20.206 32.932 C22.736 32.668 22.736 32.668 24.564 31.369 C26.311 28.616 26.188 26.322 26.262 23.082 C26.297 21.828 26.333 20.575 26.369 19.283 C26.392 17.973 26.414 16.663 26.438 15.312 C26.471 13.977 26.505 12.642 26.541 11.307 C26.624 8.038 26.693 4.769 26.75 1.5 C24.77 1.5 22.79 1.5 20.75 1.5 C20.75 10.08 20.75 18.66 20.75 27.5 C18.44 27.5 16.13 27.5 13.75 27.5 C13.75 18.92 13.75 10.34 13.75 1.5 C11.77 1.5 9.79 1.5 7.75 1.5 C7.75 10.08 7.75 18.66 7.75 27.5 C5.44 27.5 3.13 27.5 0.75 27.5 C0.75 18.92 0.75 10.34 0.75 1.5 C-2.88 1.83 -6.51 2.16 -10.25 2.5 C-10.25 1.84 -10.25 1.18 -10.25 0.5 C-6.608 -0.391 -3.709 -0.477 0 0 Z " fill="#DEDEDE" transform="translate(362.25,208.5)"/>
<path d="M0 0 C1.98 0 3.96 0 6 0 C6 4.29 6 8.58 6 13 C12.6 13 19.2 13 26 13 C26 8.71 26 4.42 26 0 C27.98 0 29.96 0 32 0 C32 10.56 32 21.12 32 32 C30.02 32 28.04 32 26 32 C26 27.71 26 23.42 26 19 C19.4 19 12.8 19 6 19 C6 23.29 6 27.58 6 32 C4.02 32 2.04 32 0 32 C0 21.44 0 10.88 0 0 Z " fill="#020202" transform="translate(287,210)"/>
<path d="M0 0 C4.29 0 8.58 0 13 0 C14.787 3.574 15.257 4.786 15.379 8.512 C15.413 9.352 15.447 10.191 15.482 11.057 C15.509 11.925 15.535 12.793 15.562 13.688 C15.622 15.421 15.686 17.154 15.754 18.887 C15.778 19.652 15.802 20.417 15.826 21.206 C15.81 23.022 15.81 23.022 17 24 C20.458 24.333 20.458 24.333 24 24 C26.021 20.969 26.256 20.262 26.344 16.84 C26.373 16.046 26.403 15.253 26.434 14.436 C26.478 12.766 26.522 11.097 26.566 9.428 C26.611 8.24 26.611 8.24 26.656 7.027 C26.675 6.303 26.694 5.578 26.713 4.832 C27 3 27 3 29 1 C32.625 0.875 32.625 0.875 36 1 C36 2.65 36 4.3 36 6 C36.66 6 37.32 6 38 6 C37.67 7.32 37.34 8.64 37 10 C34 5.25 34 5.25 34 3 C32.35 3 30.7 3 29 3 C29.031 3.832 29.031 3.832 29.063 4.681 C29.147 7.204 29.199 9.726 29.25 12.25 C29.284 13.123 29.317 13.995 29.352 14.895 C29.45 21.326 29.45 21.326 27.273 24.586 C24.711 26.18 23.367 26.485 20.375 26.375 C19.599 26.362 18.823 26.349 18.023 26.336 C16 26 16 26 14 24 C13.589 21.845 13.589 21.845 13.367 19.211 C13.283 18.27 13.2 17.329 13.113 16.359 C13.035 15.375 12.956 14.39 12.875 13.375 C12.789 12.382 12.702 11.39 12.613 10.367 C12.401 7.912 12.197 5.456 12 3 C9.36 3 6.72 3 4 3 C4.318 3.53 4.637 4.06 4.965 4.605 C7.075 9.486 6.849 14.826 6 20 C3.702 23.642 0.837 26.081 -3 28 C-4.915 28.097 -6.833 28.131 -8.75 28.133 C-9.917 28.134 -11.083 28.135 -12.285 28.137 C-14.124 28.131 -14.124 28.131 -16 28.125 C-17.195 28.129 -18.39 28.133 -19.621 28.137 C-26.477 28.129 -33.196 27.86 -40 27 C-40 26.67 -40 26.34 -40 26 C-38.905 25.991 -37.811 25.981 -36.683 25.972 C-32.61 25.932 -28.539 25.866 -24.467 25.792 C-22.706 25.764 -20.946 25.743 -19.185 25.729 C-16.65 25.708 -14.117 25.661 -11.582 25.609 C-10.799 25.608 -10.015 25.607 -9.208 25.606 C-5.339 25.503 -3.39 25.243 -0.026 23.149 C3.567 19.337 3.263 15.412 3.234 10.441 C2.938 7.357 1.805 5.482 0 3 C0 2.01 0 1.02 0 0 Z M38 10 C38.66 10.33 39.32 10.66 40 11 C39.125 14.875 39.125 14.875 38 16 C37.547 20.107 37.547 20.107 39.274 23.67 C42.291 25.995 46.057 25.447 49.719 25.434 C50.573 25.439 51.427 25.444 52.307 25.449 C54.113 25.456 55.919 25.455 57.724 25.446 C60.49 25.438 63.254 25.466 66.02 25.498 C67.773 25.5 69.527 25.499 71.281 25.496 C72.109 25.507 72.938 25.519 73.791 25.53 C78.296 25.528 78.296 25.528 81.975 23.199 C83.361 20.225 84.163 17.168 85 14 C86.666 12.334 88.66 12.829 90.938 12.812 C91.833 12.798 92.729 12.784 93.652 12.77 C96 13 96 13 98 15 C98.379 16.91 98.379 16.91 98.562 19.062 C98.559 22.767 98.559 22.767 100 24 C102.183 24.235 104.372 24.414 106.562 24.562 C107.76 24.646 108.958 24.73 110.191 24.816 C111.118 24.877 112.045 24.938 113 25 C113 25.33 113 25.66 113 26 C108.555 27.111 104.556 27.294 100 27 C98 25.625 98 25.625 97 24 C97 23.34 97 22.68 97 22 C96.34 22 95.68 22 95 22 C94.505 19.525 94.505 19.525 94 17 C92.02 17 90.04 17 88 17 C87.752 17.907 87.505 18.815 87.25 19.75 C85.897 23.268 84.959 24.712 82 27 C78.801 27.355 78.801 27.355 75.312 27.188 C73.209 27.101 71.105 27.032 69 27 C68.505 27.495 68.505 27.495 68 28 C63.591 28.311 59.169 28.279 54.75 28.312 C53.509 28.342 52.267 28.371 50.988 28.4 C49.791 28.409 48.593 28.417 47.359 28.426 C46.261 28.44 45.162 28.455 44.03 28.47 C40.312 27.893 38.668 26.6 36 24 C34.837 21.136 35 19.194 35 16 C36.438 13.625 36.438 13.625 38 12 C38 11.34 38 10.68 38 10 Z " fill="#F7F7F7" transform="translate(212,220)"/>
<path d="M0 0 C10.89 0 21.78 0 33 0 C33 2.31 33 4.62 33 7 C28.71 7 24.42 7 20 7 C20 15.25 20 23.5 20 32 C17.69 32 15.38 32 13 32 C13 23.75 13 15.5 13 7 C8.71 7 4.42 7 0 7 C0 4.69 0 2.38 0 0 Z " fill="#121212" transform="translate(216,210)"/>
<path d="M0 0 C4.093 -0.025 8.187 -0.043 12.28 -0.055 C13.673 -0.06 15.066 -0.067 16.459 -0.075 C18.46 -0.088 20.46 -0.093 22.461 -0.098 C23.665 -0.103 24.87 -0.108 26.111 -0.114 C29 0 29 0 31 1 C33.328 1.144 35.66 1.227 37.992 1.281 C39.044 1.309 39.044 1.309 40.117 1.337 C42.37 1.396 44.622 1.448 46.875 1.5 C56.618 1.728 66.295 2.035 76 3 C76 3.33 76 3.66 76 4 C73.69 4 71.38 4 69 4 C69 4.66 69 5.32 69 6 C68.34 6 67.68 6 67 6 C67 5.34 67 4.68 67 4 C62.979 4.044 58.96 4.114 54.939 4.208 C53.574 4.236 52.208 4.257 50.843 4.271 C48.871 4.293 46.901 4.341 44.93 4.391 C43.746 4.412 42.563 4.433 41.343 4.454 C37.395 5.099 35.15 6.592 32 9 C32 7.35 32 5.7 32 4 C31.092 4.03 30.183 4.061 29.247 4.092 C24.936 4.233 20.624 4.368 16.312 4.5 C15.53 4.524 14.747 4.549 13.94 4.574 C5.4 4.835 -3.132 5.045 -11.676 4.996 C-12.346 4.993 -13.016 4.989 -13.707 4.985 C-16.871 4.965 -20.034 4.928 -23.198 4.875 C-24.319 4.863 -25.439 4.852 -26.594 4.84 C-28.058 4.815 -28.058 4.815 -29.553 4.789 C-32.258 4.825 -32.258 4.825 -35 7 C-37.5 7.312 -37.5 7.312 -40 7 C-40.428 6.509 -40.855 6.018 -41.296 5.512 C-43.727 3.355 -45.549 3.57 -48.762 3.488 C-50.439 3.435 -50.439 3.435 -52.15 3.381 C-53.318 3.358 -54.485 3.336 -55.688 3.312 C-57.456 3.261 -57.456 3.261 -59.26 3.209 C-62.173 3.126 -65.086 3.057 -68 3 C-67.67 2.34 -67.34 1.68 -67 1 C-62.979 0.971 -58.958 0.953 -54.938 0.938 C-53.237 0.925 -53.237 0.925 -51.502 0.912 C-42.039 0.885 -42.039 0.885 -37.879 1.566 C-34.939 2.232 -34.939 2.232 -32 1 C-29.559 0.915 -27.147 0.884 -24.707 0.902 C-23.648 0.904 -23.648 0.904 -22.568 0.907 C-20.316 0.912 -18.064 0.925 -15.812 0.938 C-14.285 0.943 -12.757 0.947 -11.229 0.951 C-7.486 0.962 -3.743 0.979 0 1 C0 0.67 0 0.34 0 0 Z " fill="#EDEDED" transform="translate(217,206)"/>
<path d="M0 0 C6.6 0 13.2 0 20 0 C20 6.6 20 13.2 20 20 C13.4 20 6.8 20 0 20 C0 13.4 0 6.8 0 0 Z " fill="#9A9A9A" transform="translate(328,216)"/>
<path d="M0 0 C3.062 0.312 3.062 0.312 4.875 1.625 C8.507 6.786 7.453 14.039 7.562 20.062 C7.617 21.326 7.671 22.589 7.727 23.891 C7.861 33.046 7.861 33.046 5.539 36.729 C2.586 39.728 -0.091 42.204 -4.412 42.458 C-7.733 42.482 -11.054 42.498 -14.375 42.5 C-15.533 42.512 -16.691 42.524 -17.885 42.537 C-19.549 42.54 -19.549 42.54 -21.246 42.543 C-22.265 42.547 -23.284 42.551 -24.334 42.555 C-26.938 42.312 -26.938 42.312 -29.938 40.312 C-31.967 40.57 -31.967 40.57 -33.938 41.312 C-37.115 42.372 -39.363 42.427 -42.699 42.41 C-43.817 42.407 -44.936 42.404 -46.088 42.4 C-47.255 42.392 -48.422 42.384 -49.625 42.375 C-50.804 42.37 -51.983 42.366 -53.197 42.361 C-56.111 42.35 -59.024 42.333 -61.938 42.312 C-61.938 41.653 -61.938 40.993 -61.938 40.312 C-60.886 40.283 -60.886 40.283 -59.814 40.252 C-56.625 40.157 -53.438 40.047 -50.25 39.938 C-48.596 39.891 -48.596 39.891 -46.908 39.844 C-45.842 39.805 -44.775 39.766 -43.676 39.727 C-42.696 39.695 -41.717 39.664 -40.708 39.631 C-37.813 39.298 -35.58 38.514 -32.938 37.312 C-33.598 36.653 -34.257 35.993 -34.938 35.312 C-34.277 34.653 -33.618 33.993 -32.938 33.312 C-30.366 33.578 -29.01 34.257 -26.957 35.84 C-22.493 38.017 -18.337 37.748 -13.438 37.688 C-12.032 37.705 -12.032 37.705 -10.598 37.723 C-3.747 37.71 -3.747 37.71 2.062 34.312 C3.116 31.153 3.177 28.936 3.16 25.621 C3.157 24.512 3.154 23.403 3.15 22.26 C3.142 21.102 3.134 19.943 3.125 18.75 C3.12 17.588 3.116 16.426 3.111 15.229 C3.099 12.256 3.082 9.285 3.062 6.312 C3.062 5.653 3.062 4.993 3.062 4.312 C1.094 2.344 -2.286 2.65 -4.938 2.312 C-2.938 0.312 -2.938 0.312 0 0 Z " fill="#F6F6F6" transform="translate(386.9375,205.6875)"/>
<path d="M0 0 C3.91 -0.025 7.821 -0.043 11.731 -0.055 C13.7 -0.062 15.668 -0.075 17.637 -0.088 C25.481 -0.108 33.197 0.191 41 1 C45 9.75 45 9.75 45 12 C46.98 11.67 48.96 11.34 51 11 C51.227 10.093 51.454 9.185 51.688 8.25 C53.275 4.32 54.269 3.021 58 1 C60.667 0.78 63.219 0.811 65.891 0.957 C66.587 0.971 67.283 0.985 68 1 C68.33 0.67 68.66 0.34 69 0 C70.941 -0.1 72.885 -0.131 74.828 -0.133 C76.021 -0.134 77.213 -0.135 78.441 -0.137 C80.327 -0.131 80.327 -0.131 82.25 -0.125 C83.491 -0.129 84.733 -0.133 86.012 -0.137 C87.808 -0.135 87.808 -0.135 89.641 -0.133 C90.739 -0.132 91.838 -0.131 92.97 -0.129 C96 0 96 0 98.772 0.571 C101.028 1.24 101.028 1.24 103 0 C109.163 -0.228 109.163 -0.228 112.062 0.562 C114.142 1.17 114.142 1.17 116.812 0.438 C120.682 -0.094 123.337 0.754 127 2 C127 2.33 127 2.66 127 3 C126.348 2.988 125.695 2.977 125.023 2.965 C119.454 2.901 119.454 2.901 113.938 3.562 C111 4 111 4 107.23 3.535 C100.625 2.748 94.018 2.852 87.375 2.875 C86.38 2.876 86.38 2.876 85.364 2.878 C75.873 2.893 66.449 3.072 57 4 C55.68 7.3 54.36 10.6 53 14 C49.37 14 45.74 14 42 14 C40.68 10.7 39.36 7.4 38 4 C29.249 3.204 20.531 2.728 11.75 2.438 C10.516 2.394 9.283 2.351 8.012 2.307 C5.008 2.202 2.004 2.1 -1 2 C-0.67 1.34 -0.34 0.68 0 0 Z " fill="#F7F7F7" transform="translate(255,206)"/>
<path d="M0 0 C0.33 0.66 0.66 1.32 1 2 C1.66 2 2.32 2 3 2 C3.33 1.34 3.66 0.68 4 0 C4 10.56 4 21.12 4 32 C2.02 31.67 0.04 31.34 -2 31 C-1.676 30.444 -1.353 29.889 -1.02 29.316 C0.137 26.688 0.3 24.799 0.312 21.938 C0.329 21.08 0.346 20.223 0.363 19.34 C-0.085 16.454 -0.71 15.767 -3 14 C-5.411 13.497 -5.411 13.497 -8.105 13.488 C-9.088 13.453 -10.071 13.417 -11.084 13.381 C-12.62 13.347 -12.62 13.347 -14.188 13.312 C-15.223 13.278 -16.259 13.244 -17.326 13.209 C-19.884 13.126 -22.441 13.057 -25 13 C-25 10.69 -25 8.38 -25 6 C-16.75 6 -8.5 6 0 6 C0 4.02 0 2.04 0 0 Z " fill="#E2E2E2" transform="translate(283,210)"/>
<path d="M0 0 C0.936 0.018 1.872 0.036 2.836 0.055 C5.142 0.102 7.445 0.167 9.75 0.25 C12.05 4.242 11.685 6.745 10.75 11.25 C9.75 12.25 9.75 12.25 7.433 12.364 C6.433 12.358 5.433 12.353 4.402 12.348 C3.323 12.344 2.243 12.341 1.131 12.338 C-0.005 12.33 -1.142 12.321 -2.312 12.312 C-3.453 12.308 -4.593 12.303 -5.768 12.299 C-8.595 12.287 -11.423 12.271 -14.25 12.25 C-14.725 5.119 -14.725 5.119 -12.891 1.766 C-8.731 -0.622 -4.699 -0.171 0 0 Z " fill="#F3F3F3" transform="translate(133.25,231.75)"/>
<path d="M0 0 C0.99 0.33 1.98 0.66 3 1 C3 2.98 3 4.96 3 7 C7.29 7 11.58 7 16 7 C16 15.25 16 23.5 16 32 C15.34 31.67 14.68 31.34 14 31 C13.939 29.808 13.879 28.615 13.816 27.387 C13.732 25.82 13.647 24.254 13.562 22.688 C13.523 21.902 13.484 21.116 13.443 20.307 C13.401 19.549 13.36 18.792 13.316 18.012 C13.261 16.967 13.261 16.967 13.205 15.901 C13.044 13.778 13.044 13.778 12 11 C8.968 9.805 5.975 9.895 2.75 9.938 C1.858 9.947 0.966 9.956 0.047 9.965 C-0.629 9.976 -1.304 9.988 -2 10 C-1.34 11.98 -0.68 13.96 0 16 C-0.99 15.34 -1.98 14.68 -3 14 C-5.515 13.633 -5.515 13.633 -8.324 13.586 C-9.352 13.547 -10.38 13.509 -11.439 13.469 C-13.047 13.422 -13.047 13.422 -14.688 13.375 C-15.771 13.336 -16.854 13.298 -17.971 13.258 C-20.647 13.163 -23.323 13.078 -26 13 C-26 10.69 -26 8.38 -26 6 C-17.42 6 -8.84 6 0 6 C0 4.02 0 2.04 0 0 Z M16 32 C17.65 32 19.3 32 21 32 C21 32.33 21 32.66 21 33 C19.35 33 17.7 33 16 33 C16 32.67 16 32.34 16 32 Z " fill="#E4E4E4" transform="translate(213,210)"/>
<path d="M0 0 C1.32 0.33 2.64 0.66 4 1 C3.67 6.94 3.34 12.88 3 19 C2.01 18.01 1.02 17.02 0 16 C0 14.02 0 12.04 0 10 C-8.58 10 -17.16 10 -26 10 C-26 7.69 -26 5.38 -26 3 C-17.42 3 -8.84 3 0 3 C0 2.01 0 1.02 0 0 Z " fill="#E2C5C5" transform="translate(143,213)"/>
<path d="M0 0 C0.33 0 0.66 0 1 0 C1.33 10.56 1.66 21.12 2 32 C13.88 32 25.76 32 38 32 C34 37 34 37 30.855 37.631 C29.04 37.63 29.04 37.63 27.188 37.629 C26.537 37.631 25.886 37.634 25.216 37.636 C23.844 37.635 22.472 37.622 21.101 37.597 C19.006 37.563 16.915 37.576 14.82 37.596 C13.484 37.589 12.148 37.579 10.812 37.566 C8.997 37.55 8.997 37.55 7.145 37.533 C4 37 4 37 1.599 35.44 C-0.575 32.122 -0.503 29.222 -0.391 25.391 C-0.385 24.664 -0.379 23.937 -0.373 23.188 C-0.351 20.875 -0.301 18.563 -0.25 16.25 C-0.23 14.678 -0.212 13.107 -0.195 11.535 C-0.151 7.69 -0.082 3.845 0 0 Z M38 30 C39.65 30 41.3 30 43 30 C41.02 30.99 41.02 30.99 39 32 C38.67 31.34 38.34 30.68 38 30 Z " fill="#F2F2F2" transform="translate(107,215)"/>
<path d="M0 0 C1.195 -0.007 1.195 -0.007 2.414 -0.014 C6.699 -0.003 10.717 0.274 14.938 1.125 C14.938 1.785 14.938 2.445 14.938 3.125 C16.587 3.125 18.238 3.125 19.938 3.125 C19.608 4.775 19.278 6.425 18.938 8.125 C18.278 8.125 17.618 8.125 16.938 8.125 C16.495 7.31 16.053 6.496 15.598 5.656 C11.227 1.497 6.164 2.482 0.375 2.625 C-0.774 2.622 -1.923 2.62 -3.107 2.617 C-8.862 2.291 -8.862 2.291 -13.726 4.654 C-14.388 5.382 -14.388 5.382 -15.062 6.125 C-16.053 6.125 -17.043 6.125 -18.062 6.125 C-18.062 4.805 -18.062 3.485 -18.062 2.125 C-20.043 2.125 -22.022 2.125 -24.062 2.125 C-24.062 6.415 -24.062 10.705 -24.062 15.125 C-30.663 15.125 -37.262 15.125 -44.062 15.125 C-44.062 10.835 -44.062 6.545 -44.062 2.125 C-42.072 5.111 -41.121 7.722 -40.062 11.125 C-36.433 11.125 -32.803 11.125 -29.062 11.125 C-28.588 9.661 -28.114 8.196 -27.625 6.688 C-26.188 2.25 -26.188 2.25 -25.062 1.125 C-16.754 0.155 -8.357 0.027 0 0 Z " fill="#ECECEC" transform="translate(337.0625,207.875)"/>
<path d="M0 0 C4.459 -0.081 8.916 -0.14 13.375 -0.188 C14.646 -0.213 15.917 -0.238 17.227 -0.264 C18.438 -0.273 19.65 -0.283 20.898 -0.293 C22.019 -0.309 23.14 -0.324 24.294 -0.341 C25.187 -0.228 26.08 -0.116 27 0 C29.181 3.271 29.249 4.274 29.188 8.062 C29.181 8.94 29.175 9.818 29.168 10.723 C29 13 29 13 28 15 C29.98 15 31.96 15 34 15 C34 15.33 34 15.66 34 16 C32.02 16 30.04 16 28 16 C28 16.66 28 17.32 28 18 C16.12 18 4.24 18 -8 18 C-8 17.01 -8 16.02 -8 15 C3.22 14.67 14.44 14.34 26 14 C27.117 8.081 27.117 8.081 26 3 C22.375 2.913 18.751 2.86 15.125 2.812 C14.092 2.787 13.06 2.762 11.996 2.736 C11.01 2.727 10.024 2.717 9.008 2.707 C8.097 2.691 7.185 2.676 6.247 2.659 C5.135 2.828 5.135 2.828 4 3 C1.704 6.445 1.46 8.938 1 13 C0.67 13 0.34 13 0 13 C0 8.71 0 4.42 0 0 Z M29 13 C30.65 13 32.3 13 34 13 C34 13.33 34 13.66 34 14 C32.35 14 30.7 14 29 14 C29 13.67 29 13.34 29 13 Z " fill="#E1C4C4" transform="translate(117,229)"/>
<path d="M0 0 C4.29 0 8.58 0 13 0 C14.787 3.574 15.257 4.786 15.379 8.512 C15.413 9.352 15.447 10.191 15.482 11.057 C15.509 11.925 15.535 12.793 15.562 13.688 C15.622 15.421 15.686 17.154 15.754 18.887 C15.778 19.652 15.802 20.417 15.826 21.206 C15.81 23.022 15.81 23.022 17 24 C19.328 24.368 21.662 24.702 24 25 C24 25.33 24 25.66 24 26 C17.945 26.195 17.945 26.195 16 26 C13.553 23.553 13.652 22.589 13.367 19.211 C13.283 18.27 13.2 17.329 13.113 16.359 C13.035 15.375 12.956 14.39 12.875 13.375 C12.789 12.382 12.702 11.39 12.613 10.367 C12.401 7.912 12.197 5.456 12 3 C9.36 3 6.72 3 4 3 C4.318 3.53 4.637 4.06 4.965 4.605 C7.075 9.486 6.849 14.826 6 20 C3.702 23.642 0.837 26.081 -3 28 C-4.915 28.097 -6.833 28.131 -8.75 28.133 C-9.917 28.134 -11.083 28.135 -12.285 28.137 C-14.124 28.131 -14.124 28.131 -16 28.125 C-17.195 28.129 -18.39 28.133 -19.621 28.137 C-26.477 28.129 -33.196 27.86 -40 27 C-40 26.67 -40 26.34 -40 26 C-38.905 25.991 -37.811 25.981 -36.683 25.972 C-32.61 25.932 -28.539 25.866 -24.467 25.792 C-22.706 25.764 -20.946 25.743 -19.185 25.729 C-16.65 25.708 -14.117 25.661 -11.582 25.609 C-10.799 25.608 -10.015 25.607 -9.208 25.606 C-5.339 25.503 -3.39 25.243 -0.026 23.149 C3.567 19.337 3.263 15.412 3.234 10.441 C2.938 7.357 1.805 5.482 0 3 C0 2.01 0 1.02 0 0 Z " fill="#F6F6F6" transform="translate(212,220)"/>
<path d="M0 0 C1.084 0.005 2.168 0.01 3.285 0.016 C5.04 0.021 5.04 0.021 6.83 0.026 C8.677 0.038 8.677 0.038 10.562 0.051 C12.416 0.058 12.416 0.058 14.306 0.065 C17.371 0.077 20.435 0.093 23.5 0.114 C23.5 2.424 23.5 4.734 23.5 7.114 C14.59 7.114 5.68 7.114 -3.5 7.114 C-3.5 0.159 -3.5 0.159 0 0 Z " fill="#B7B7B7" transform="translate(183.500244140625,228.886474609375)"/>
<path d="M0 0 C1.33 0.008 1.33 0.008 2.688 0.016 C3.574 0.01 4.461 0.005 5.375 0 C7.688 0.266 7.688 0.266 9.688 2.266 C9.953 4.578 9.953 4.578 9.938 7.266 C9.943 8.153 9.948 9.039 9.953 9.953 C9.688 12.266 9.688 12.266 7.688 14.266 C5.121 14.496 5.121 14.496 2.125 14.453 C1.134 14.447 0.142 14.44 -0.879 14.434 C-3.312 14.266 -3.312 14.266 -4.312 13.266 C-4.437 11.456 -4.488 9.642 -4.5 7.828 C-4.514 6.839 -4.528 5.851 -4.543 4.832 C-4.238 1.431 -3.434 0.394 0 0 Z " fill="#F2F2F2" transform="translate(335.3125,219.734375)"/>
<path d="M0 0 C1.65 0 3.3 0 5 0 C4.977 0.82 4.954 1.64 4.93 2.484 C4.912 3.562 4.894 4.64 4.875 5.75 C4.852 6.817 4.829 7.885 4.805 8.984 C4.995 11.925 5.473 13.524 7 16 C6.01 16.33 5.02 16.66 4 17 C4 20.96 4 24.92 4 29 C7.933 28.931 11.866 28.843 15.798 28.738 C17.793 28.688 19.788 28.653 21.783 28.619 C23.037 28.584 24.29 28.548 25.582 28.512 C26.739 28.486 27.897 28.459 29.089 28.432 C31.991 28.236 31.991 28.236 33.869 26.609 C35.355 24.494 35.502 22.876 35.688 20.312 C35.753 19.504 35.819 18.696 35.887 17.863 C35.924 17.248 35.961 16.634 36 16 C36.66 16.33 37.32 16.66 38 17 C38.293 21.973 38.165 25.044 35 29 C31.791 31.04 29.256 31.247 25.492 31.23 C24.422 31.229 23.352 31.227 22.25 31.225 C20.579 31.206 20.579 31.206 18.875 31.188 C17.239 31.187 17.239 31.187 15.57 31.186 C8.991 31.15 2.531 30.799 -4 30 C-4 29.67 -4 29.34 -4 29 C-2.35 29 -0.7 29 1 29 C0.67 19.43 0.34 9.86 0 0 Z " fill="#D9D9D9" transform="translate(177,213)"/>
<path d="M0 0 C0.33 0 0.66 0 1 0 C0.388 6.492 0.388 6.492 -1.301 8.706 C-4.307 10.995 -8.086 10.425 -11.719 10.398 C-12.573 10.401 -13.427 10.404 -14.307 10.407 C-16.113 10.409 -17.919 10.404 -19.724 10.391 C-22.49 10.375 -25.254 10.391 -28.02 10.41 C-29.773 10.408 -31.527 10.404 -33.281 10.398 C-34.109 10.405 -34.938 10.411 -35.791 10.417 C-41.548 10.346 -41.548 10.346 -43.73 8.675 C-45.617 6.186 -45.202 4.025 -45 1 C-44.67 1 -44.34 1 -44 1 C-44 2.65 -44 4.3 -44 6 C-42.982 5.964 -41.963 5.929 -40.914 5.892 C-37.105 5.761 -33.295 5.638 -29.486 5.518 C-27.843 5.465 -26.2 5.409 -24.557 5.352 C-22.184 5.269 -19.811 5.194 -17.438 5.121 C-16.351 5.081 -16.351 5.081 -15.243 5.039 C-10.385 4.9 -5.81 5.297 -1 6 C-0.67 4.02 -0.34 2.04 0 0 Z " fill="#E3E3E3" transform="translate(295,236)"/>
<path d="M0 0 C1.98 0.99 1.98 0.99 4 2 C4.99 1.34 5.98 0.68 7 0 C7 8.58 7 17.16 7 26 C4.69 26 2.38 26 0 26 C0 17.42 0 8.84 0 0 Z " fill="#B8B8B8" transform="translate(376,210)"/>
<path d="M0 0 C0.794 -0.014 1.588 -0.028 2.406 -0.043 C4.5 0.188 4.5 0.188 6.5 2.188 C6.625 4.812 6.625 4.812 6.5 7.188 C5.84 5.868 5.18 4.548 4.5 3.188 C2.19 3.188 -0.12 3.188 -2.5 3.188 C-2.706 4.074 -2.912 4.961 -3.125 5.875 C-5.368 11.279 -9.45 13.662 -14.5 16.188 C-15.054 16.857 -15.609 17.526 -16.18 18.215 C-19.349 20.909 -21.376 20.69 -25.496 20.684 C-26.502 20.686 -26.502 20.686 -27.528 20.688 C-28.943 20.686 -30.357 20.675 -31.772 20.654 C-33.927 20.625 -36.081 20.633 -38.236 20.646 C-49.748 20.594 -49.748 20.594 -54.5 17.188 C-54.17 16.197 -53.84 15.208 -53.5 14.188 C-53.143 14.673 -52.786 15.158 -52.417 15.658 C-48.513 18.772 -42.566 17.704 -37.731 17.688 C-35.638 17.688 -33.549 17.729 -31.457 17.773 C-30.12 17.779 -28.783 17.781 -27.445 17.781 C-26.234 17.788 -25.022 17.795 -23.774 17.803 C-19.619 17.022 -18.249 15.301 -15.5 12.188 C-14.634 11.857 -13.767 11.528 -12.875 11.188 C-9.695 9.849 -8.961 8.255 -7.5 5.188 C-7.222 4.074 -7.222 4.074 -6.938 2.938 C-6.793 2.36 -6.649 1.782 -6.5 1.188 C-4.147 0.011 -2.619 0.021 0 0 Z " fill="#F6F6F6" transform="translate(161.5,233.8125)"/>
<path d="M0 0 C4.021 -0.029 8.042 -0.047 12.062 -0.062 C13.763 -0.075 13.763 -0.075 15.498 -0.088 C24.961 -0.115 24.961 -0.115 29.121 0.566 C32.061 1.232 32.061 1.232 35 0 C36.983 -0.095 38.968 -0.131 40.953 -0.133 C42.13 -0.134 43.307 -0.135 44.52 -0.137 C46.366 -0.131 46.366 -0.131 48.25 -0.125 C49.466 -0.129 50.681 -0.133 51.934 -0.137 C57.721 -0.13 63.303 -0.062 69 1 C69 1.33 69 1.66 69 2 C67.532 2.022 67.532 2.022 66.034 2.044 C62.396 2.102 58.758 2.179 55.121 2.262 C53.547 2.296 51.974 2.324 50.401 2.346 C48.137 2.38 45.873 2.432 43.609 2.488 C42.558 2.498 42.558 2.498 41.485 2.508 C37.315 2.633 35.116 3.241 32 6 C29.438 6.375 29.438 6.375 27 6 C26.36 5.262 26.36 5.262 25.708 4.509 C23.273 2.358 21.45 2.57 18.238 2.488 C16.561 2.435 16.561 2.435 14.85 2.381 C13.682 2.358 12.515 2.336 11.312 2.312 C9.544 2.261 9.544 2.261 7.74 2.209 C4.827 2.126 1.914 2.057 -1 2 C-0.67 1.34 -0.34 0.68 0 0 Z " fill="#EFEFEF" transform="translate(150,207)"/>
<path d="M0 0 C6.6 0 13.2 0 20 0 C20 4.29 20 8.58 20 13 C23.63 13 27.26 13 31 13 C31 13.33 31 13.66 31 14 C29.232 14.249 27.46 14.474 25.688 14.688 C24.701 14.815 23.715 14.943 22.699 15.074 C20 15 20 15 18.219 13.75 C16.35 11.067 15.771 8.145 15 5 C13.375 4.946 11.75 4.907 10.125 4.875 C9.22 4.852 8.315 4.829 7.383 4.805 C4.812 4.757 4.812 4.757 3 7 C2.286 8.984 1.614 10.983 1 13 C0.67 13 0.34 13 0 13 C0 8.71 0 4.42 0 0 Z " fill="#B9B9B9" transform="translate(293,229)"/>
<path d="M0 0 C6.6 0 13.2 0 20 0 C20 2.31 20 4.62 20 7 C13.4 7 6.8 7 0 7 C0 4.69 0 2.38 0 0 Z " fill="#A0A0A0" transform="translate(152,216)"/>
<path d="M0 0 C1.461 0.04 2.923 0.077 4.385 0.109 C7.946 0.197 11.504 0.335 15.062 0.5 C15.062 1.16 15.062 1.82 15.062 2.5 C14.21 2.504 13.358 2.508 12.48 2.512 C9.302 2.54 6.125 2.589 2.947 2.653 C1.575 2.676 0.202 2.69 -1.17 2.696 C-3.149 2.705 -5.127 2.749 -7.105 2.793 C-8.294 2.809 -9.483 2.824 -10.708 2.841 C-14.803 3.677 -16.192 5.442 -18.938 8.5 C-19.927 8.83 -20.918 9.16 -21.938 9.5 C-21.938 20.39 -21.938 31.28 -21.938 42.5 C-22.597 42.5 -23.257 42.5 -23.938 42.5 C-23.968 37.803 -23.952 33.11 -23.895 28.413 C-23.882 26.819 -23.881 25.224 -23.893 23.63 C-23.991 8.736 -23.991 8.736 -20.375 3.438 C-14.849 -1.58 -6.961 -0.333 0 0 Z " fill="#F7F7F7" transform="translate(128.9375,205.5)"/>
<path d="M0 0 C0.33 0 0.66 0 1 0 C1 8.91 1 17.82 1 27 C3.31 27 5.62 27 8 27 C7.938 25.928 7.876 24.855 7.812 23.75 C8.012 19.767 8.246 18.728 11 16 C13.36 15.546 13.36 15.546 16.105 15.609 C17.58 15.629 17.58 15.629 19.084 15.648 C20.108 15.682 21.132 15.715 22.188 15.75 C23.741 15.777 23.741 15.777 25.326 15.805 C27.885 15.852 30.442 15.918 33 16 C33 16.33 33 16.66 33 17 C32.41 17.015 31.82 17.029 31.212 17.044 C28.536 17.119 25.862 17.215 23.188 17.312 C21.794 17.346 21.794 17.346 20.373 17.381 C19.48 17.416 18.588 17.452 17.668 17.488 C16.846 17.514 16.024 17.541 15.177 17.568 C12.539 18.092 11.633 18.899 10 21 C9.43 23.041 9.43 23.041 9.312 25.188 C9.158 27.075 9.158 27.075 9 29 C5.7 29 2.4 29 -1 29 C-1.029 24.542 -1.047 20.083 -1.062 15.625 C-1.071 14.354 -1.079 13.083 -1.088 11.773 C-1.091 10.562 -1.094 9.35 -1.098 8.102 C-1.103 6.981 -1.108 5.86 -1.114 4.706 C-1 2 -1 2 0 0 Z " fill="#E3D3D3" transform="translate(110,215)"/>
<path d="M0 0 C0.66 0.33 1.32 0.66 2 1 C2.087 5.062 2.14 9.124 2.188 13.188 C2.213 14.338 2.238 15.488 2.264 16.674 C2.273 17.786 2.283 18.897 2.293 20.043 C2.309 21.064 2.324 22.085 2.341 23.137 C1.857 27.2 0.087 29.764 -2.574 32.789 C-6.515 34.756 -10.474 34.432 -14.812 34.375 C-16.128 34.392 -16.128 34.392 -17.471 34.41 C-23.124 34.385 -26.943 33.496 -32 31 C-33.988 30.602 -35.987 30.245 -38 30 C-37.01 28.515 -37.01 28.515 -36 27 C-33.507 27.462 -32.051 27.961 -30.012 29.52 C-25.553 31.711 -21.4 31.436 -16.5 31.375 C-15.094 31.392 -15.094 31.392 -13.66 31.41 C-6.81 31.398 -6.81 31.398 -1 28 C0.059 24.822 0.115 22.574 0.098 19.238 C0.094 18.12 0.091 17.002 0.088 15.85 C0.08 14.682 0.071 13.515 0.062 12.312 C0.058 11.134 0.053 9.955 0.049 8.74 C0.037 5.827 0.021 2.913 0 0 Z " fill="#ECECEC" transform="translate(390,212)"/>
<path d="M0 0 C11.55 0 23.1 0 35 0 C35 0.99 35 1.98 35 3 C23.45 3 11.9 3 0 3 C0 2.01 0 1.02 0 0 Z " fill="#FE3030" transform="translate(109,244)"/>
<path d="M0 0 C1.485 0.99 1.485 0.99 3 2 C5.417 2.366 5.417 2.366 8.105 2.414 C9.088 2.453 10.071 2.491 11.084 2.531 C12.62 2.578 12.62 2.578 14.188 2.625 C15.223 2.664 16.259 2.702 17.326 2.742 C19.884 2.836 22.442 2.922 25 3 C25 5.31 25 7.62 25 10 C16.75 10 8.5 10 0 10 C0 11.98 0 13.96 0 16 C-0.33 16 -0.66 16 -1 16 C-1 13.69 -1 11.38 -1 9 C9.395 8.505 9.395 8.505 20 8 C20 7.34 20 6.68 20 6 C18.463 6.07 18.463 6.07 16.895 6.141 C15.534 6.178 14.173 6.215 12.812 6.25 C12.139 6.284 11.465 6.317 10.771 6.352 C7.093 6.423 5.149 6.094 2.012 4.109 C0 2 0 2 0 0 Z " fill="#ADADAD" transform="translate(252,226)"/>
<path d="M0 0 C0.33 0 0.66 0 1 0 C2.216 5.104 2.329 10.25 2.518 15.469 C2.608 17.317 2.796 19.16 3 21 C3.66 21.33 4.32 21.66 5 22 C4.988 21.082 4.977 20.164 4.965 19.219 C4.917 12.71 4.971 6.431 6 0 C6.33 0 6.66 0 7 0 C7 8.58 7 17.16 7 26 C4.69 26 2.38 26 0 26 C0 17.42 0 8.84 0 0 Z " fill="#B2B2B2" transform="translate(363,210)"/>
<path d="M0 0 C6.6 0 13.2 0 20 0 C20 4.29 20 8.58 20 13 C17.121 10.121 16.272 6.817 15 3 C13.208 3.114 11.416 3.241 9.625 3.375 C8.627 3.445 7.63 3.514 6.602 3.586 C3.845 3.764 3.845 3.764 2 6 C1.6 8.323 1.26 10.657 1 13 C0.67 13 0.34 13 0 13 C0 8.71 0 4.42 0 0 Z " fill="#ADADAD" transform="translate(152,229)"/>
<path d="M0 0 C0.959 -0.019 1.918 -0.039 2.906 -0.059 C5.5 0.438 5.5 0.438 7.27 2.23 C8.911 5.175 9.685 8.179 10.5 11.438 C11.21 11.486 11.921 11.535 12.652 11.586 C14.031 11.698 14.031 11.698 15.438 11.812 C16.354 11.882 17.271 11.952 18.215 12.023 C19.346 12.228 19.346 12.228 20.5 12.438 C20.83 13.097 21.16 13.757 21.5 14.438 C19.375 14.491 17.25 14.53 15.125 14.562 C13.35 14.597 13.35 14.597 11.539 14.633 C8.5 14.438 8.5 14.438 6.5 12.438 C6.121 10.527 6.121 10.527 5.938 8.375 C5.941 4.67 5.941 4.67 4.5 3.438 C2.647 3.365 0.792 3.354 -1.062 3.375 C-2.074 3.384 -3.086 3.393 -4.129 3.402 C-4.911 3.414 -5.694 3.426 -6.5 3.438 C-6.83 5.748 -7.16 8.058 -7.5 10.438 C-7.83 10.438 -8.16 10.438 -8.5 10.438 C-8.866 3.971 -8.866 3.971 -7.332 1.734 C-4.827 -0.039 -3.047 0.004 0 0 Z M-16.5 10.438 C-13.86 10.438 -11.22 10.438 -8.5 10.438 C-8.83 11.097 -9.16 11.757 -9.5 12.438 C-11.81 12.438 -14.12 12.438 -16.5 12.438 C-16.5 11.778 -16.5 11.118 -16.5 10.438 Z " fill="#EDEDED" transform="translate(161.5,231.5625)"/>
<path d="M0 0 C2.179 3.268 3.498 6.381 5 10 C9.29 10 13.58 10 18 10 C17.959 8.907 17.918 7.814 17.875 6.688 C18 3 18 3 20 0 C20 4.29 20 8.58 20 13 C13.4 13 6.8 13 0 13 C0 8.71 0 4.42 0 0 Z " fill="#BABABA" transform="translate(293,210)"/>
<path d="M0 0 C10.23 0 20.46 0 31 0 C30.01 1.485 30.01 1.485 29 3 C26.203 3.341 26.203 3.341 22.68 3.293 C21.423 3.283 20.166 3.274 18.871 3.264 C17.552 3.239 16.234 3.213 14.875 3.188 C13.535 3.172 12.195 3.159 10.855 3.146 C7.57 3.111 4.285 3.062 1 3 C0.67 2.01 0.34 1.02 0 0 Z " fill="#E5E5E5" transform="translate(112,247)"/>
<path d="M0 0 C8.58 0 17.16 0 26 0 C22.504 1.748 21.3 2.259 17.672 2.414 C16.873 2.453 16.073 2.491 15.25 2.531 C14.012 2.578 14.012 2.578 12.75 2.625 C11.489 2.683 11.489 2.683 10.203 2.742 C8.136 2.836 6.068 2.919 4 3 C4 3.99 4 4.98 4 6 C9.28 6 14.56 6 20 6 C20 6.33 20 6.66 20 7 C13.4 7 6.8 7 0 7 C0 4.69 0 2.38 0 0 Z " fill="#A0A0A0" transform="translate(187,216)"/>
<path d="M0 0 C0.022 1.014 0.022 1.014 0.044 2.048 C0.119 5.116 0.215 8.183 0.312 11.25 C0.335 12.313 0.358 13.377 0.381 14.473 C0.416 15.497 0.452 16.522 0.488 17.578 C0.514 18.521 0.541 19.463 0.568 20.435 C1.063 23.372 2.048 24.792 4 27 C3.134 26.474 3.134 26.474 2.25 25.938 C-0.414 24.827 -1.32 25.135 -4 26 C-4.99 26 -5.98 26 -7 26 C-6.516 25.61 -6.031 25.221 -5.532 24.819 C-3.523 22.434 -3.578 20.986 -3.488 17.895 C-3.453 16.912 -3.417 15.929 -3.381 14.916 C-3.358 13.892 -3.336 12.868 -3.312 11.812 C-3.278 10.777 -3.244 9.741 -3.209 8.674 C-3.126 6.116 -3.057 3.559 -3 1 C-1 0 -1 0 0 0 Z " fill="#CFCFCF" transform="translate(357,215)"/>
<path d="M0 0 C0.33 0 0.66 0 1 0 C1 10.56 1 21.12 1 32 C-0.98 31.67 -2.96 31.34 -5 31 C-4.676 30.443 -4.353 29.886 -4.02 29.312 C-2.868 26.702 -2.7 24.843 -2.688 22 C-2.671 21.154 -2.654 20.309 -2.637 19.438 C-3.068 16.547 -4.095 15.172 -6 13 C-4.35 13 -2.7 13 -1 13 C-0.67 8.71 -0.34 4.42 0 0 Z " fill="#C3C3C3" transform="translate(286,210)"/>
<path d="M0 0 C0.33 0 0.66 0 1 0 C1 2.31 1 4.62 1 7 C-3.739 8.149 -8.463 8.329 -13.312 8.562 C-14.148 8.606 -14.984 8.649 -15.846 8.693 C-17.897 8.799 -19.948 8.9 -22 9 C-22.33 9.99 -22.66 10.98 -23 12 C-17.06 12 -11.12 12 -5 12 C-5 12.33 -5 12.66 -5 13 C-11.6 13 -18.2 13 -25 13 C-25 10.69 -25 8.38 -25 6 C-16.75 6 -8.5 6 0 6 C0 4.02 0 2.04 0 0 Z " fill="#9D9D9D" transform="translate(283,210)"/>
<path d="M0 0 C0.896 -0.014 1.792 -0.028 2.715 -0.043 C5.062 0.188 5.062 0.188 7.062 2.188 C7.441 4.098 7.441 4.098 7.625 6.25 C7.622 9.955 7.622 9.955 9.062 11.188 C11.245 11.422 13.435 11.601 15.625 11.75 C16.823 11.834 18.02 11.918 19.254 12.004 C20.181 12.064 21.108 12.125 22.062 12.188 C22.062 12.518 22.062 12.847 22.062 13.188 C17.582 14.308 13.651 14.624 9.062 14.188 C5.56 11.054 4.31 7.657 3.062 3.188 C0.752 3.188 -1.558 3.188 -3.938 3.188 C-4.928 5.498 -5.918 7.808 -6.938 10.188 C-8.547 6.969 -7.012 4.472 -5.938 1.188 C-4.272 -0.478 -2.278 0.016 0 0 Z " fill="#F4F4F4" transform="translate(302.9375,232.8125)"/>
<path d="M0 0 C3.3 0 6.6 0 10 0 C10 8.25 10 16.5 10 25 C9.34 24.67 8.68 24.34 8 24 C7.939 22.808 7.879 21.615 7.816 20.387 C7.732 18.82 7.647 17.254 7.562 15.688 C7.504 14.509 7.504 14.509 7.443 13.307 C7.381 12.171 7.381 12.171 7.316 11.012 C7.28 10.315 7.243 9.619 7.205 8.901 C7.044 6.778 7.044 6.778 6 4 C3.985 3.267 3.985 3.267 2 3 C2 2.34 2 1.68 2 1 C1.34 0.67 0.68 0.34 0 0 Z M10 25 C11.65 25 13.3 25 15 25 C15 25.33 15 25.66 15 26 C13.35 26 11.7 26 10 26 C10 25.67 10 25.34 10 25 Z " fill="#E3E3E3" transform="translate(219,217)"/>
<path d="M0 0 C0.33 0 0.66 0 1 0 C1 3.63 1 7.26 1 11 C0.34 11 -0.32 11 -1 11 C-1.33 9.35 -1.66 7.7 -2 6 C-3.646 6.14 -5.292 6.287 -6.938 6.438 C-7.854 6.519 -8.771 6.6 -9.715 6.684 C-11.962 6.76 -11.962 6.76 -13 8 C-13.156 9.413 -13.251 10.834 -13.316 12.254 C-13.358 13.108 -13.4 13.962 -13.443 14.842 C-13.483 15.74 -13.522 16.637 -13.562 17.562 C-13.606 18.464 -13.649 19.366 -13.693 20.295 C-13.8 22.53 -13.902 24.765 -14 27 C-14.33 27 -14.66 27 -15 27 C-15 19.41 -15 11.82 -15 4 C-10.71 4 -6.42 4 -2 4 C-1.34 2.68 -0.68 1.36 0 0 Z " fill="#DADADA" transform="translate(251,213)"/>
<path d="M0 0 C0.248 0.598 0.495 1.196 0.75 1.812 C2.271 4.474 3.327 5.472 6 7 C8.673 7.213 11.093 7.285 13.75 7.188 C14.447 7.174 15.145 7.16 15.863 7.146 C17.576 7.111 19.288 7.057 21 7 C21 8.32 21 9.64 21 11 C15.06 11 9.12 11 3 11 C2.67 9.68 2.34 8.36 2 7 C1.34 6.34 0.68 5.68 0 5 C-0.125 2.375 -0.125 2.375 0 0 Z " fill="#E2E2E2" transform="translate(251,224)"/>
<path d="M0 0 C0.99 0 1.98 0 3 0 C3.33 8.25 3.66 16.5 4 25 C2.68 25 1.36 25 0 25 C0 16.75 0 8.5 0 0 Z " fill="#C4C4C4" transform="translate(319,214)"/>
<path d="M0 0 C4.021 -0.029 8.042 -0.047 12.062 -0.062 C13.763 -0.075 13.763 -0.075 15.498 -0.088 C29.741 -0.129 29.741 -0.129 34 2 C33.67 2.66 33.34 3.32 33 4 C26.848 4.098 26.848 4.098 25 4 C24.67 3.67 24.34 3.34 24 3 C22.148 2.842 20.291 2.749 18.434 2.684 C16.747 2.621 16.747 2.621 15.025 2.557 C13.841 2.517 12.657 2.478 11.438 2.438 C10.25 2.394 9.062 2.351 7.838 2.307 C4.892 2.2 1.946 2.098 -1 2 C-0.67 1.34 -0.34 0.68 0 0 Z " fill="#F1F1F1" transform="translate(150,207)"/>
<path d="M0 0 C1.65 0 3.3 0 5 0 C4.67 6.93 4.34 13.86 4 21 C3.01 20.67 2.02 20.34 1 20 C0.67 13.4 0.34 6.8 0 0 Z " fill="#E2E2E2" transform="translate(364,211)"/>
<path d="M0 0 C5.28 0 10.56 0 16 0 C16.33 0.99 16.66 1.98 17 3 C16 4 16 4 12.184 4.098 C10.602 4.091 9.019 4.079 7.438 4.062 C6.631 4.058 5.825 4.053 4.994 4.049 C2.996 4.037 0.998 4.019 -1 4 C-0.67 2.68 -0.34 1.36 0 0 Z " fill="#FDFDFD" transform="translate(124,236)"/>
<path d="M0 0 C4.875 0.875 4.875 0.875 6 2 C7.852 2.158 9.709 2.251 11.566 2.316 C13.253 2.379 13.253 2.379 14.975 2.443 C16.751 2.502 16.751 2.502 18.562 2.562 C19.75 2.606 20.938 2.649 22.162 2.693 C25.108 2.8 28.054 2.902 31 3 C27.764 5.157 26.842 5.256 23.105 5.266 C21.672 5.269 21.672 5.269 20.209 5.273 C19.212 5.266 18.215 5.258 17.188 5.25 C15.709 5.262 15.709 5.262 14.201 5.273 C9.076 5.26 4.792 5.05 0 3 C0 2.01 0 1.02 0 0 Z " fill="#DADADA" transform="translate(319,239)"/>
<path d="M0 0 C6.6 0 13.2 0 20 0 C20 0.33 20 0.66 20 1 C13.4 1 6.8 1 0 1 C0 0.67 0 0.34 0 0 Z M20 1 C20.33 1 20.66 1 21 1 C21 3.97 21 6.94 21 10 C17.354 10.029 13.708 10.047 10.062 10.062 C8.501 10.075 8.501 10.075 6.908 10.088 C5.919 10.091 4.929 10.094 3.91 10.098 C2.994 10.103 2.077 10.108 1.133 10.114 C-1 10 -1 10 -2 9 C-2.041 6.667 -2.042 4.333 -2 2 C-1.67 2 -1.34 2 -1 2 C-0.34 3.98 0.32 5.96 1 8 C6.94 8 12.88 8 19 8 C19.33 5.69 19.66 3.38 20 1 Z " fill="#F2F2F2" transform="translate(122,233)"/>
<path d="M0 0 C0.905 0.023 1.81 0.046 2.742 0.07 C3.652 0.088 4.562 0.106 5.5 0.125 C6.199 0.148 6.897 0.171 7.617 0.195 C7.287 0.855 6.957 1.515 6.617 2.195 C5.318 2.175 4.018 2.154 2.68 2.133 C1.326 2.111 -0.03 2.124 -1.383 2.195 C-2.992 3.805 -2.567 5.592 -2.629 7.816 C-2.662 8.752 -2.695 9.687 -2.729 10.65 C-2.79 12.635 -2.847 14.619 -2.9 16.604 C-2.935 17.54 -2.969 18.477 -3.004 19.441 C-3.029 20.304 -3.054 21.167 -3.08 22.056 C-3.383 24.195 -3.383 24.195 -5.383 26.195 C-9.008 26.32 -9.008 26.32 -12.383 26.195 C-13.043 24.875 -13.703 23.555 -14.383 22.195 C-13.269 22.36 -12.155 22.525 -11.008 22.695 C-7.662 23.241 -7.662 23.241 -5.383 23.195 C-5.363 22.57 -5.343 21.944 -5.323 21.299 C-5.228 18.473 -5.118 15.647 -5.008 12.82 C-4.977 11.835 -4.946 10.851 -4.914 9.836 C-4.875 8.895 -4.837 7.954 -4.797 6.984 C-4.765 6.115 -4.734 5.246 -4.702 4.35 C-4.228 1.147 -3.205 0.263 0 0 Z " fill="#EAEAEA" transform="translate(241.3828125,218.8046875)"/>
<path d="M0 0 C0.66 0 1.32 0 2 0 C2 3.96 2 7.92 2 12 C1.34 11.67 0.68 11.34 0 11 C0 9.68 0 8.36 0 7 C-10.395 7.495 -10.395 7.495 -21 8 C-21 8.66 -21 9.32 -21 10 C-21.99 10 -22.98 10 -24 10 C-23.67 8.68 -23.34 7.36 -23 6 C-15.41 5.67 -7.82 5.34 0 5 C0 3.35 0 1.7 0 0 Z " fill="#DEDEDE" transform="translate(284,212)"/>
<path d="M0 0 C1.65 0 3.3 0 5 0 C5 4.29 5 8.58 5 13 C4.01 13.495 4.01 13.495 3 14 C2.688 16.549 2.487 19.004 2.375 21.562 C2.336 22.273 2.298 22.984 2.258 23.717 C2.163 25.477 2.081 27.239 2 29 C1.67 29 1.34 29 1 29 C0.67 19.43 0.34 9.86 0 0 Z " fill="#C9C9C9" transform="translate(177,213)"/>
<path d="M0 0 C1.134 0.021 2.269 0.041 3.438 0.062 C3.562 2.938 3.562 2.938 3.438 6.062 C2.777 6.722 2.118 7.382 1.438 8.062 C-1.688 7.688 -1.688 7.688 -4.562 7.062 C-4.605 5.063 -4.603 3.062 -4.562 1.062 C-3.562 0.062 -3.562 0.062 0 0 Z " fill="#FDFDFD" transform="translate(338.5625,222.9375)"/>
<path d="M0 0 C0.906 0.021 1.812 0.042 2.745 0.063 C4.22 0.083 4.22 0.083 5.724 0.103 C6.748 0.136 7.772 0.17 8.827 0.204 C10.381 0.231 10.381 0.231 11.966 0.259 C14.525 0.306 17.082 0.372 19.64 0.454 C19.64 0.784 19.64 1.114 19.64 1.454 C18.755 1.476 18.755 1.476 17.852 1.498 C15.176 1.573 12.502 1.669 9.827 1.767 C8.899 1.789 7.97 1.812 7.013 1.835 C6.12 1.87 5.228 1.906 4.308 1.942 C3.486 1.969 2.664 1.995 1.816 2.022 C-0.822 2.546 -1.727 3.353 -3.36 5.454 C-3.93 7.495 -3.93 7.495 -4.048 9.642 C-4.202 11.529 -4.202 11.529 -4.36 13.454 C-7 13.454 -9.64 13.454 -12.36 13.454 C-12.36 12.794 -12.36 12.134 -12.36 11.454 C-10.05 11.454 -7.74 11.454 -5.36 11.454 C-5.422 10.382 -5.484 9.309 -5.548 8.204 C-5.329 3.823 -4.668 0.898 0 0 Z " fill="#E1E1E1" transform="translate(123.360107421875,230.5458984375)"/>
<path d="M0 0 C2.475 0.495 2.475 0.495 5 1 C5.91 3.73 6.17 5.584 6.281 8.414 C6.319 9.257 6.356 10.1 6.395 10.969 C6.465 12.747 6.535 14.526 6.605 16.305 C6.662 17.565 6.662 17.565 6.719 18.852 C6.749 19.623 6.779 20.395 6.811 21.19 C6.81 23.02 6.81 23.02 8 24 C10.328 24.368 12.662 24.702 15 25 C15 25.33 15 25.66 15 26 C8.945 26.195 8.945 26.195 7 26 C4.556 23.556 4.688 22.686 4.473 19.316 C4.402 18.389 4.332 17.461 4.26 16.506 C4.129 14.548 4.001 12.589 3.877 10.631 C3.805 9.702 3.734 8.773 3.66 7.816 C3.605 6.965 3.549 6.114 3.492 5.237 C2.917 2.623 2.039 1.676 0 0 Z " fill="#F1F1F1" transform="translate(221,220)"/>
<path d="M0 0 C3.96 0 7.92 0 12 0 C12.33 1.32 12.66 2.64 13 4 C8.38 4 3.76 4 -1 4 C-0.67 2.68 -0.34 1.36 0 0 Z " fill="#DADADA" transform="translate(156,218)"/>
<path d="M0 0 C1.65 0 3.3 0 5 0 C3.02 0.99 3.02 0.99 1 2 C0.67 1.34 0.34 0.68 0 0 Z M-36 2 C-34.68 2.33 -33.36 2.66 -32 3 C-32 3.66 -32 4.32 -32 5 C-27.416 4.89 -22.833 4.76 -18.25 4.625 C-16.948 4.594 -15.646 4.563 -14.305 4.531 C-12.429 4.473 -12.429 4.473 -10.516 4.414 C-9.364 4.383 -8.211 4.351 -7.024 4.319 C-4.152 4.016 -2.438 3.491 0 2 C-1.078 3.971 -1.078 3.971 -3 6 C-6.047 6.486 -6.047 6.486 -9.75 6.461 C-10.405 6.46 -11.059 6.459 -11.733 6.458 C-13.115 6.452 -14.497 6.436 -15.879 6.412 C-17.993 6.375 -20.105 6.371 -22.219 6.371 C-32.557 6.295 -32.557 6.295 -36 4 C-36 3.34 -36 2.68 -36 2 Z " fill="#EDEDED" transform="translate(145,245)"/>
<path d="M0 0 C5.94 0 11.88 0 18 0 C18 5.94 18 11.88 18 18 C17.34 17.67 16.68 17.34 16 17 C16.012 16.264 16.023 15.528 16.035 14.77 C16.044 13.794 16.053 12.818 16.062 11.812 C16.074 10.85 16.086 9.887 16.098 8.895 C16.005 6.144 15.621 3.675 15 1 C13.25 1.142 11.5 1.289 9.75 1.438 C8.288 1.559 8.288 1.559 6.797 1.684 C4.435 1.951 2.281 2.354 0 3 C0 2.01 0 1.02 0 0 Z " fill="#D7D7D7" transform="translate(329,217)"/>
<path d="M0 0 C1.32 0.33 2.64 0.66 4 1 C3.67 6.94 3.34 12.88 3 19 C0 16 0 16 -0.293 12.207 C-0.273 10.742 -0.237 9.277 -0.188 7.812 C-0.174 7.063 -0.16 6.313 -0.146 5.541 C-0.111 3.694 -0.057 1.847 0 0 Z " fill="#D6D6D6" transform="translate(143,213)"/>
<path d="M0 0 C7.59 0 15.18 0 23 0 C23 0.66 23 1.32 23 2 C24.65 2 26.3 2 28 2 C27.67 3.65 27.34 5.3 27 7 C26.34 7 25.68 7 25 7 C24.52 6.192 24.041 5.384 23.547 4.551 C19.628 0.626 15.591 1.22 10.25 1.188 C9.266 1.162 8.283 1.137 7.27 1.111 C4.846 1.053 2.424 1.016 0 1 C0 0.67 0 0.34 0 0 Z " fill="#DFDFDF" transform="translate(329,209)"/>
<path d="M0 0 C1.205 -0.021 1.205 -0.021 2.434 -0.043 C4.562 0.188 4.562 0.188 6.562 2.188 C6.688 4.812 6.688 4.812 6.562 7.188 C5.903 5.868 5.243 4.548 4.562 3.188 C2.252 3.188 -0.058 3.188 -2.438 3.188 C-2.726 4.157 -3.015 5.126 -3.312 6.125 C-4.438 9.188 -4.438 9.188 -6.438 10.188 C-6.297 8.708 -6.15 7.229 -6 5.75 C-5.919 4.926 -5.838 4.103 -5.754 3.254 C-5.177 -0.511 -3.436 0.027 0 0 Z " fill="#F8F8F8" transform="translate(161.4375,233.8125)"/>
<path d="M0 0 C-3.266 1.913 -5.994 2.357 -9.75 2.625 C-10.735 2.7 -11.72 2.775 -12.734 2.852 C-13.482 2.901 -14.23 2.95 -15 3 C-15 3.33 -15 3.66 -15 4 C-16.65 4 -18.3 4 -20 4 C-20 3.01 -20 2.02 -20 1 C-16.858 -0.571 -13.456 -0.42 -10 -0.625 C-8.894 -0.702 -8.894 -0.702 -7.766 -0.781 C-2.247 -1.124 -2.247 -1.124 0 0 Z " fill="#DEDEDE" transform="translate(211,218)"/>
<path d="M0 0 C0 0.33 0 0.66 0 1 C-1.64 1.217 -1.64 1.217 -3.312 1.438 C-5.285 1.876 -5.285 1.876 -7 3 C-8.577 5.975 -9.196 8.688 -10 12 C-13.63 12 -17.26 12 -21 12 C-21.33 10.35 -21.66 8.7 -22 7 C-21.505 7.743 -21.505 7.743 -21 8.5 C-17.824 10.882 -14.898 10.192 -11 10 C-10.897 8.907 -10.794 7.814 -10.688 6.688 C-10 3 -10 3 -8.875 1.062 C-5.969 -0.584 -3.262 -0.185 0 0 Z " fill="#F5F5F5" transform="translate(318,208)"/>
<path d="M0 0 C2.491 0.461 3.99 0.993 6.062 2.5 C10.131 4.577 13.804 4.563 18.312 4.688 C19.148 4.722 19.984 4.756 20.846 4.791 C22.897 4.873 24.948 4.938 27 5 C27 5.33 27 5.66 27 6 C23.729 6.058 20.459 6.094 17.188 6.125 C15.794 6.15 15.794 6.15 14.373 6.176 C13.48 6.182 12.588 6.189 11.668 6.195 C10.846 6.206 10.024 6.216 9.177 6.227 C7 6 7 6 4 4 C2.01 3.61 0.01 3.268 -2 3 C-1.34 2.01 -0.68 1.02 0 0 Z " fill="#E5E5E5" transform="translate(354,239)"/>
<path d="M0 0 C6.539 -0.126 6.539 -0.126 9.062 0.562 C11.142 1.17 11.142 1.17 13.812 0.438 C17.682 -0.094 20.337 0.754 24 2 C24 2.33 24 2.66 24 3 C23.348 2.988 22.695 2.977 22.023 2.965 C18.067 2.924 14.407 2.927 10.5 3.625 C9.675 3.749 8.85 3.873 8 4 C7.34 3.34 6.68 2.68 6 2 C4.012 1.602 2.011 1.262 0 1 C0 0.67 0 0.34 0 0 Z " fill="#F9F9F9" transform="translate(358,206)"/>
<path d="M0 0 C4.25 0.449 8.355 0.657 12.625 0.562 C12.625 0.893 12.625 1.222 12.625 1.562 C10.981 1.924 9.334 2.276 7.688 2.625 C6.771 2.822 5.854 3.019 4.91 3.223 C3.779 3.391 3.779 3.391 2.625 3.562 C2.295 3.232 1.965 2.903 1.625 2.562 C-0.395 2.49 -2.417 2.479 -4.438 2.5 C-5.542 2.509 -6.647 2.518 -7.785 2.527 C-8.64 2.539 -9.494 2.551 -10.375 2.562 C-10.375 1.903 -10.375 1.243 -10.375 0.562 C-6.715 -0.329 -3.734 -0.433 0 0 Z " fill="#F1F1F1" transform="translate(362.375,208.4375)"/>
<path d="M0 0 C0.33 0 0.66 0 1 0 C1 1.65 1 3.3 1 5 C1.99 5.33 2.98 5.66 4 6 C4 6.66 4 7.32 4 8 C11.92 8 19.84 8 28 8 C28 8.33 28 8.66 28 9 C23.896 9.087 19.792 9.14 15.688 9.188 C13.937 9.225 13.937 9.225 12.15 9.264 C11.032 9.273 9.914 9.283 8.762 9.293 C7.73 9.309 6.698 9.324 5.635 9.341 C3 9 3 9 1.152 7.681 C-0.57 5.168 -0.197 2.959 0 0 Z " fill="#EDEDED" transform="translate(250,237)"/>
<path d="M0 0 C0.33 0 0.66 0 1 0 C1 3.63 1 7.26 1 11 C0.34 11 -0.32 11 -1 11 C-1.33 9.35 -1.66 7.7 -2 6 C-3.98 6 -5.96 6 -8 6 C-7.34 5.34 -6.68 4.68 -6 4 C-4.68 4 -3.36 4 -2 4 C-1.34 2.68 -0.68 1.36 0 0 Z " fill="#CACACA" transform="translate(251,213)"/>
<path d="M0 0 C1.32 0 2.64 0 4 0 C4.66 1.65 5.32 3.3 6 5 C3.69 5.66 1.38 6.32 -1 7 C-1.043 5 -1.041 3 -1 1 C-0.67 0.67 -0.34 0.34 0 0 Z " fill="#E6E6E6" transform="translate(181,229)"/>
<path d="M0 0 C6.93 0.33 13.86 0.66 21 1 C21 2.65 21 4.3 21 6 C20.01 6 19.02 6 18 6 C17.67 5.01 17.34 4.02 17 3 C11.39 2.67 5.78 2.34 0 2 C0 1.34 0 0.68 0 0 Z " fill="#D5D5D5" transform="translate(185,229)"/>
<path d="M0 0 C2.051 0.033 4.102 0.065 6.152 0.098 C6.152 0.428 6.152 0.758 6.152 1.098 C3.842 1.428 1.532 1.758 -0.848 2.098 C-1.178 4.078 -1.508 6.058 -1.848 8.098 C-2.178 8.098 -2.508 8.098 -2.848 8.098 C-2.89 5.765 -2.889 3.431 -2.848 1.098 C-1.848 0.098 -1.848 0.098 0 0 Z M6.152 1.098 C6.482 1.098 6.812 1.098 7.152 1.098 C7.25 7.25 7.25 7.25 7.152 9.098 C6.152 10.098 6.152 10.098 2.59 10.16 C1.455 10.14 0.321 10.119 -0.848 10.098 C-1.178 9.438 -1.508 8.778 -1.848 8.098 C0.132 8.098 2.112 8.098 4.152 8.098 C4.812 5.788 5.472 3.478 6.152 1.098 Z " fill="#F9F9F9" transform="translate(335.84765625,221.90234375)"/>
<path d="M0 0 C7.26 0 14.52 0 22 0 C22 0.33 22 0.66 22 1 C12.595 1.495 12.595 1.495 3 2 C3 2.99 3 3.98 3 5 C2.01 5 1.02 5 0 5 C0 3.35 0 1.7 0 0 Z " fill="#D4D4D4" transform="translate(118,217)"/>
<path d="M0 0 C1.65 0 3.3 0 5 0 C5 7.26 5 14.52 5 22 C4.67 22 4.34 22 4 22 C3.963 20.915 3.925 19.829 3.887 18.711 C3.821 17.266 3.755 15.82 3.688 14.375 C3.665 13.662 3.642 12.949 3.619 12.215 C3.38 7.474 2.457 4.177 0 0 Z " fill="#D8D8D8" transform="translate(224,217)"/>
<path d="M0 0 C0.99 0.33 1.98 0.66 3 1 C3.66 0.67 4.32 0.34 5 0 C4.34 5.61 3.68 11.22 3 17 C2.67 17 2.34 17 2 17 C1.939 16.276 1.879 15.551 1.816 14.805 C1.385 9.829 0.93 4.913 0 0 Z " fill="#E5E5E5" transform="translate(377,211)"/>
<path d="M0 0 C5.94 0 11.88 0 18 0 C17.67 1.32 17.34 2.64 17 4 C16.01 3.34 15.02 2.68 14 2 C11.36 1.645 11.36 1.645 8.5 1.688 C7.061 1.662 7.061 1.662 5.594 1.637 C2.652 2.049 1.796 2.701 0 5 C0 3.35 0 1.7 0 0 Z " fill="#D5D5D5" transform="translate(294,230)"/>
<path d="M0 0 C3.63 0 7.26 0 11 0 C10.01 1.485 10.01 1.485 9 3 C6.836 3.293 6.836 3.293 4.375 3.188 C3.558 3.16 2.74 3.133 1.898 3.105 C1.272 3.071 0.645 3.036 0 3 C0 2.01 0 1.02 0 0 Z " fill="#F43232" transform="translate(109,244)"/>
<path d="M0 0 C5.94 0 11.88 0 18 0 C17.67 1.32 17.34 2.64 17 4 C16.34 3.34 15.68 2.68 15 2 C11.943 1.642 11.943 1.642 8.5 1.688 C7.335 1.671 6.169 1.654 4.969 1.637 C3.499 1.817 3.499 1.817 2 2 C1.01 3.485 1.01 3.485 0 5 C0 3.35 0 1.7 0 0 Z " fill="#D4D4D4" transform="translate(153,230)"/>
<path d="M0 0 C1.32 0.66 2.64 1.32 4 2 C2.515 2.99 2.515 2.99 1 4 C0.635 6.667 0.635 6.667 0.812 9.625 C0.84 10.628 0.867 11.631 0.895 12.664 C0.929 13.435 0.964 14.206 1 15 C0.34 15 -0.32 15 -1 15 C-1.027 12.688 -1.046 10.375 -1.062 8.062 C-1.074 6.775 -1.086 5.487 -1.098 4.16 C-1 1 -1 1 0 0 Z " fill="#DADADA" transform="translate(180,226)"/>
<path d="M0 0 C6.6 0 13.2 0 20 0 C20 0.33 20 0.66 20 1 C18.808 1.037 17.615 1.075 16.387 1.113 C14.82 1.179 13.254 1.245 11.688 1.312 C10.902 1.335 10.116 1.358 9.307 1.381 C8.171 1.434 8.171 1.434 7.012 1.488 C5.967 1.528 5.967 1.528 4.901 1.568 C2.506 2.112 1.567 3.158 0 5 C0 3.35 0 1.7 0 0 Z " fill="#D7D7D7" transform="translate(118,230)"/>
<path d="M0 0 C0.33 0 0.66 0 1 0 C1 5.61 1 11.22 1 17 C-0.65 17 -2.3 17 -4 17 C-3.67 16.01 -3.34 15.02 -3 14 C-2.34 14 -1.68 14 -1 14 C-0.67 9.38 -0.34 4.76 0 0 Z " fill="#D9D9D9" transform="translate(381,218)"/>
<path d="M0 0 C6.93 0.495 6.93 0.495 14 1 C13.67 1.99 13.34 2.98 13 4 C10.36 4 7.72 4 5 4 C4.67 3.01 4.34 2.02 4 1 C2.68 0.67 1.36 0.34 0 0 Z " fill="#F4F4F4" transform="translate(170,207)"/>
<path d="M0 0 C2.64 0 5.28 0 8 0 C8 0.99 8 1.98 8 3 C5.36 3 2.72 3 0 3 C0 2.01 0 1.02 0 0 Z " fill="#E1E1E1" transform="translate(158,219)"/>
<path d="M0 0 C0.998 0.023 1.995 0.046 3.023 0.07 C4.528 0.097 4.528 0.097 6.062 0.125 C6.833 0.148 7.604 0.171 8.398 0.195 C8.398 0.525 8.398 0.855 8.398 1.195 C7.476 1.251 7.476 1.251 6.535 1.309 C5.323 1.407 5.323 1.407 4.086 1.508 C3.285 1.566 2.485 1.624 1.66 1.684 C-1.007 2.287 -1.908 3.089 -3.602 5.195 C-4.777 7.295 -4.777 7.295 -5.602 9.195 C-4.618 0.347 -4.618 0.347 0 0 Z " fill="#E3E3E3" transform="translate(299.6015625,230.8046875)"/>
<path d="M0 0 C0.33 0 0.66 0 1 0 C1.027 1.812 1.046 3.625 1.062 5.438 C1.074 6.447 1.086 7.456 1.098 8.496 C1 11 1 11 0 12 C-1.853 12.072 -3.708 12.084 -5.562 12.062 C-6.574 12.053 -7.586 12.044 -8.629 12.035 C-9.411 12.024 -10.194 12.012 -11 12 C-11 11.67 -11 11.34 -11 11 C-10.362 10.939 -9.724 10.879 -9.066 10.816 C-8.24 10.733 -7.414 10.649 -6.562 10.562 C-5.739 10.481 -4.915 10.4 -4.066 10.316 C-2.013 10.211 -2.013 10.211 -1 9 C-0.768 7.485 -0.588 5.962 -0.438 4.438 C-0.354 3.611 -0.27 2.785 -0.184 1.934 C-0.123 1.296 -0.062 0.657 0 0 Z " fill="#E6E6E6" transform="translate(345,223)"/>
<path d="M0 0 C0.66 0.33 1.32 0.66 2 1 C1.67 1.33 1.34 1.66 1 2 C0.849 3.787 0.778 5.582 0.75 7.375 C0.724 8.352 0.698 9.329 0.672 10.336 C0.765 13.05 0.765 13.05 2.516 14.852 C3.005 15.231 3.495 15.61 4 16 C2.35 16 0.7 16 -1 16 C-1.027 13.521 -1.047 11.042 -1.062 8.562 C-1.075 7.502 -1.075 7.502 -1.088 6.42 C-1.097 4.613 -1.052 2.806 -1 1 C-0.67 0.67 -0.34 0.34 0 0 Z " fill="#DFDFDF" transform="translate(330,219)"/>
<path d="M0 0 C5.61 0 11.22 0 17 0 C17 0.33 17 0.66 17 1 C12.05 1.33 7.1 1.66 2 2 C2 2.66 2 3.32 2 4 C1.01 4 0.02 4 -1 4 C-0.67 2.68 -0.34 1.36 0 0 Z " fill="#DADADA" transform="translate(261,218)"/>
<path d="M0 0 C1.65 0 3.3 0 5 0 C4.67 1.98 4.34 3.96 4 6 C3.01 6.33 2.02 6.66 1 7 C0.67 4.69 0.34 2.38 0 0 Z " fill="#E6E6E6" transform="translate(364,211)"/>
<path d="M0 0 C4.875 4.75 4.875 4.75 6 7 C5.423 6.649 4.845 6.299 4.25 5.938 C1.586 4.827 0.68 5.135 -2 6 C-2.99 6 -3.98 6 -5 6 C-3.35 4.02 -1.7 2.04 0 0 Z " fill="#C6C6C6" transform="translate(355,235)"/>
<path d="M0 0 C1.65 1.32 3.3 2.64 5 4 C4.67 4.99 4.34 5.98 4 7 C3.01 6.67 2.02 6.34 1 6 C0.67 4.02 0.34 2.04 0 0 Z M0 7 C1.333 9.667 0.671 11.167 0 14 C-0.33 14 -0.66 14 -1 14 C-1.043 12 -1.041 10 -1 8 C-0.67 7.67 -0.34 7.34 0 7 Z " fill="#F0F0F0" transform="translate(250,228)"/>
<path d="M0 0 C0 1.65 0 3.3 0 5 C-1.98 4.34 -3.96 3.68 -6 3 C-6 2.34 -6 1.68 -6 1 C-4 0 -4 0 0 0 Z " fill="#E9E9E9" transform="translate(284,219)"/>
<path d="M0 0 C1.32 0.33 2.64 0.66 4 1 C3.719 2.648 3.425 4.293 3.125 5.938 C2.963 6.854 2.8 7.771 2.633 8.715 C2.424 9.469 2.215 10.223 2 11 C1.01 11.495 1.01 11.495 0 12 C0 8.04 0 4.08 0 0 Z " fill="#DBDBDB" transform="translate(143,213)"/>
<path d="M0 0 C0.99 0.33 1.98 0.66 3 1 C3 2.98 3 4.96 3 7 C2.01 7 1.02 7 0 7 C0 4.69 0 2.38 0 0 Z " fill="#D9D9D9" transform="translate(213,210)"/>
<path d="M0 0 C1.65 0 3.3 0 5 0 C5.33 1.65 5.66 3.3 6 5 C5.01 5.495 5.01 5.495 4 6 C2.68 4.02 1.36 2.04 0 0 Z " fill="#D0D0D0" transform="translate(280,223)"/>
<path d="M0 0 C1.98 0 3.96 0 6 0 C4.355 1.688 2.687 3.354 1 5 C0.67 5 0.34 5 0 5 C0 3.35 0 1.7 0 0 Z " fill="#E3E3E3" transform="translate(249,210)"/>
<path d="M0 0 C0.33 0 0.66 0 1 0 C1 1.65 1 3.3 1 5 C1.99 5.33 2.98 5.66 4 6 C4 6.66 4 7.32 4 8 C4.99 8.33 5.98 8.66 7 9 C2.25 8.25 2.25 8.25 0 6 C-0.125 2.875 -0.125 2.875 0 0 Z " fill="#ECECEC" transform="translate(250,237)"/>
</svg>